<?xml version="1.0" encoding="utf-8"?>
<!-- Generator: Adobe Illustrator 16.0.0, SVG Export Plug-In . SVG Version: 6.00 Build 0)  -->
<!DOCTYPE svg PUBLIC "-//W3C//DTD SVG 1.1//EN" "http://www.w3.org/Graphics/SVG/1.1/DTD/svg11.dtd">
<svg version="1.1" id="Layer_1" xmlns="http://www.w3.org/2000/svg" xmlns:xlink="http://www.w3.org/1999/xlink" x="0px" y="0px"
	 width="555.84px" height="528.479px" viewBox="0 0 555.84 528.479" enable-background="new 0 0 555.84 528.479"
	 xml:space="preserve">
<g>
	<path fill="#2B66AD" d="M252.839,1.439c0.4,0,0.8,0,1.2,0c0.229,1.005,0.56,2.757-0.479,3.12
		C252.589,4.25,252.92,2.64,252.839,1.439z"/>
	<path fill="#2B66AD" d="M253.56,5.04c-0.154,2.886,0.329,6.409-1.44,7.68C251.183,10.386,251.762,6.159,253.56,5.04z"/>
	<path fill="#2B66AD" d="M173.159,6.959c0.051,1.491,0.055,2.935-1.44,2.88C171.281,8.688,171.435,6.681,173.159,6.959z"/>
	<path fill="#2B66AD" d="M221.879,9.601c0.045,1.484-0.5,2.379-1.68,2.64C219.467,11.056,220.49,8.663,221.879,9.601z"/>
	<path fill="#2B66AD" d="M321,33.601c-0.188,1.012-0.297,2.103-1.68,1.92C318.629,34.464,319.529,33.258,321,33.601z"/>
	<path fill="#2B66AD" d="M349.801,38.641c-0.148,2.036-1.977,2.282-3.119,3.6c-2.996,3.452-3.91,9.109-8.881,10.56
		c0.121-3.829,3.635-5.231,5.52-7.44c0.709-0.83,0.797-2.074,1.439-2.88c1.248-1.565,2.988-2.492,3.842-4.32
		C349.365,37.955,349.342,38.538,349.801,38.641z"/>
	<path fill="#2B66AD" d="M352.92,41.279c0.773,2.234-1.617,3.49-2.641,5.04c-1.074,1.631-1.352,4.003-3.119,5.04
		c0.367-4.673,3.973-6.106,5.039-10.08C352.439,41.279,352.68,41.279,352.92,41.279z"/>
	<path fill="#2B66AD" d="M418.68,52.561c-0.963,1.597-1.881,3.238-4.078,3.6C415.41,54.412,416.58,53.02,418.68,52.561z"/>
	<path fill="#2B66AD" d="M321.721,56.641c-0.178,2.143-0.811,3.831-2.881,4.08C318.646,58.336,320.238,56.558,321.721,56.641z"/>
	<path fill="#2B66AD" d="M115.559,56.879c0.4,0,0.8,0,1.2,0c0.273,0.526,0.619,0.98,0.48,1.92c-0.502,0.138-0.685,0.595-1.44,0.479
		C115.227,58.623,115.324,57.831,115.559,56.879z"/>
	<path fill="#2B66AD" d="M194.28,66.479c0,0.4,0,0.8,0,1.2c-0.311,0.331-1.042,0.237-1.68,0.24
		C192.248,66.578,193.374,65.81,194.28,66.479z"/>
	<path fill="#2B66AD" d="M136.439,77.76c3.827,3.213,5.928,8.152,8.16,12.96C141.332,86.948,138.761,82.479,136.439,77.76z"/>
	<path fill="#2B66AD" d="M204.359,86.161C204.565,81.653,208.25,87.293,204.359,86.161L204.359,86.161z"/>
	<path fill="#2B66AD" d="M330.84,84.72c0.279,2.75-2.842,3.715-4.318,6c-2.297,3.55-3.162,8.498-7.682,9.84
		c-0.15-4.391,4.234-4.247,4.801-7.92c0.713-0.488,1.525-0.875,2.16-1.44c0.686-2.994,2.248-5.111,4.561-6.48
		C330.52,84.72,330.68,84.72,330.84,84.72z"/>
	<path fill="#2B66AD" d="M415.561,85.681c-0.072,1.688-1.453,2.068-2.881,2.4C412.824,86.463,413.805,85.686,415.561,85.681z"/>
	<path fill="#2B66AD" d="M287.16,88.561c-0.295,1.866-0.877,3.444-3.119,3.36c-0.072-0.489-0.648-0.471-0.721-0.96
		C283.721,89.281,284.971,88.453,287.16,88.561z"/>
	<path fill="#2B66AD" d="M64.439,90.24c0.889,0.151,1.338,0.742,1.2,1.92c-0.861,0.141-1.161-0.279-1.68-0.48
		C63.769,90.851,64.226,90.667,64.439,90.24z"/>
	<path fill="#2B66AD" d="M199.8,92.399c0.846,1.234,1.224,2.938,1.2,5.04C199.589,96.896,199.701,93.667,199.8,92.399z"/>
	<path fill="#2B66AD" d="M377.639,98.641c0.027,1.467-1.928,0.951-1.68,2.64c-0.43,0.031-0.506-0.293-0.959-0.24
		C375.041,99.4,376.029,98.709,377.639,98.641z"/>
	<path fill="#2B66AD" d="M234.119,121.201c0.901,0.155-0.069,2.233,0,3.12C232.599,124.081,233.79,121.817,234.119,121.201z"/>
	<path fill="#2B66AD" d="M145.8,126.24c-0.006,0.565,0.413,0.707,0.24,1.44c-0.32,0.342-1.36,0.342-1.68,0
		C144.381,126.742,144.653,126.054,145.8,126.24z"/>
	<path fill="#2B66AD" d="M202.2,128.879c-0.825,0.105-1.345-0.095-1.92-0.24C199.828,126.43,202.723,127.079,202.2,128.879z"/>
	<path fill="#2B66AD" d="M206.28,127.439c0.195,1.235-0.612,1.468-1.68,1.44C204.324,127.46,205.261,126.883,206.28,127.439z"/>
	<path fill="#2B66AD" d="M403.561,127.201c0.695,1.877-3.137,3.219-5.041,4.08C399.553,129.272,402.131,128.811,403.561,127.201z"/>
	<path fill="#2B66AD" d="M342.359,129.359c-0.232,1.848-1.662,2.498-3.6,2.64C338.922,130.223,341.166,128.577,342.359,129.359z"/>
	<path fill="#2B66AD" d="M204.839,130.8c-0.025,1.334,0.191,2.911-0.479,3.6c-0.637,0.619-2.432,0.62-3.36,0.24
		C199.819,131.917,202.419,129.908,204.839,130.8z"/>
	<path fill="#2B66AD" d="M216.6,134.879c0.159,0,0.319,0,0.479,0c0.93,0.343,1.488,2.091,0.96,3.12
		C216.86,137.759,215.886,136.236,216.6,134.879z"/>
	<path fill="#2B66AD" d="M112.2,136.319c-0.025,0.745,0.755,0.685,0.48,1.68C110.917,139.284,109.33,135.832,112.2,136.319z"/>
	<path fill="#2B66AD" d="M251.159,143.04c1.269,2.562,0.574,5.543-2.88,5.28c-0.192-0.448-0.401-0.879-0.48-1.44
		c-0.882-0.158-1.613-0.466-2.64-0.48c-0.44-0.76-0.423-1.977-0.96-2.64C246.128,141.951,248.601,141.482,251.159,143.04z"/>
	<path fill="#2B66AD" d="M383.4,142.8c-1.178,1.485-3.244,3.287-5.521,2.88C377.82,142.959,381.93,143.198,383.4,142.8z"/>
	<path fill="#2B66AD" d="M203.159,145.919c0.466,0.586,0.294,2.071-0.24,2.4c-0.875,0.156-1.277-0.162-1.68-0.48
		C201.36,146.681,201.805,145.844,203.159,145.919z"/>
	<path fill="#2B66AD" d="M227.159,146.641c0.084,0.864,0.367,1.156,0,1.92c-1.279,0.159-2.101-0.14-2.4-0.96
		C224.692,146.333,226.209,146.192,227.159,146.641z"/>
	<path fill="#2B66AD" d="M198.119,149.04c0.501,2.225-1.072,3.507-2.88,2.64C194.08,149.646,196.488,147.586,198.119,149.04z"/>
	<path fill="#2B66AD" d="M256.439,155.04c0.367,1.378-1.717,3.25-3.601,2.4C251.528,155.139,255.136,153.246,256.439,155.04z"/>
	<path fill="#2B66AD" d="M403.801,154.8c-0.162,1.848-2.973,3.033-4.561,1.92C398.783,154.23,402.064,154.31,403.801,154.8z"/>
	<path fill="#2B66AD" d="M191.64,154.8c1.403,1.339-0.577,3.155-2.16,2.16C189.327,155.368,190.047,154.647,191.64,154.8z"/>
	<path fill="#2B66AD" d="M188.28,156.72c2.308,4.96-5.039,6.408-5.76,2.88C181.933,156.729,185.876,154.463,188.28,156.72z"/>
	<path fill="#2B66AD" d="M257.879,158.641c-0.424,1.255-0.23,3.128-1.68,3.36C256.418,160.54,256.244,158.686,257.879,158.641z"/>
	<path fill="#2B66AD" d="M239.879,160.319c0.411,1.011,0.469,2.99-0.96,2.88C237.261,163.094,237.67,159.435,239.879,160.319z"/>
	<path fill="#2B66AD" d="M267.24,161.52c0.617,1.26-0.124,3.015-1.68,2.88C264.094,163.145,266.403,161.172,267.24,161.52z"/>
	<path fill="#2B66AD" d="M161.159,164.879c-0.904,0.706-2.647,0.544-3.6,0C155.742,160.528,162.882,160.817,161.159,164.879z"/>
	<path fill="#2B66AD" d="M77.399,162.959c-0.063,0.703,0.543,0.737,0.48,1.44c-0.577,0.548-1.451,0.041-1.92-0.24
		c0-0.32,0-0.64,0-0.96C76.243,162.924,76.808,162.929,77.399,162.959z"/>
	<path fill="#2B66AD" d="M265.079,165.121c0.675,1.626-2.012,3.856-3.12,5.28c0.067,0.733,1.073,0.527,1.2,1.2
		c0.125,1.99-1.121,3.532-2.88,2.88c-0.749-1.253,0.837-2.436-0.24-3.36C261.349,168.749,263.357,167.078,265.079,165.121z"/>
	<path fill="#2B66AD" d="M115.319,165.359c1-0.12,1.152,0.608,1.2,1.44c-0.315,0.085-0.377,0.423-0.72,0.479
		C114.667,167.2,114.78,165.951,115.319,165.359z"/>
	<path fill="#2B66AD" d="M222.839,165.359c1.432-0.371,1.726,1.338,1.2,2.16c-0.399,0-0.8,0-1.2,0
		C222.544,166.842,222.544,166.039,222.839,165.359z"/>
	<path fill="#2B66AD" d="M165.72,167.52c1.296-0.304,1.469,1.417,0.96,2.16c-0.399,0-0.8,0-1.199,0
		C165.085,168.899,165.386,168.194,165.72,167.52z"/>
	<path fill="#2B66AD" d="M260.76,167.76c0.118,1.238-0.33,1.91-1.439,1.92C258.541,168.709,259.82,167.012,260.76,167.76z"/>
	<path fill="#2B66AD" d="M129.479,169.439c2.104-0.627,4.339,0.386,4.08,3.12C132.971,178.777,122.864,171.413,129.479,169.439z"/>
	<path fill="#2B66AD" d="M109.079,169.681c3.691,3.368-3.195,6.749-3.84,2.88C104.938,170.752,106.926,168.89,109.079,169.681z"/>
	<path fill="#2B66AD" d="M242.999,170.399c-0.002,0.638,0.091,1.371-0.24,1.68c-0.399,0-0.8,0-1.199,0
		C240.668,171.057,241.839,169.372,242.999,170.399z"/>
	<path fill="#2B66AD" d="M259.8,171.359c-0.174,0.866-1.007,1.073-2.159,0.96C257.02,170.336,259.342,170.292,259.8,171.359z"/>
	<path fill="#2B66AD" d="M244.68,173.04c0,0.4,0,0.8,0,1.2c-0.882,0.126-1.327,0.687-2.159,0.24
		C242.069,172.899,243.735,172.458,244.68,173.04z"/>
	<path fill="#2B66AD" d="M115.559,176.641c-0.597,0.683-1.728,0.832-3.12,0.72C108.613,173.696,117.37,170.835,115.559,176.641z"/>
	<path fill="#2B66AD" d="M265.8,173.52c-0.154,0.965-0.595,1.645-1.92,1.44C263.466,173.486,264.844,172.862,265.8,173.52z"/>
	<path fill="#2B66AD" d="M283.08,173.76c-0.264,3.016-2.42,4.141-5.28,4.56c-0.823-1.22,1.21-2.218,1.921-1.2
		C281.117,176.277,280.799,173.719,283.08,173.76z"/>
	<path fill="#2B66AD" d="M251.159,174.24c1.226,1.467-0.132,4.004-1.44,3.84C247.732,177.831,248.038,173.712,251.159,174.24z"/>
	<path fill="#2B66AD" d="M234.6,175.201c1.615,1.134,2.195,4.802,0.96,6.72c-2.277,0.795-3.315-0.519-3.36-1.92
		c-0.039-1.209,1.543-3.498,1.68-4.8C234.119,175.201,234.359,175.201,234.6,175.201z"/>
	<path fill="#2B66AD" d="M307.08,176.161c-0.088,1.353-1.184,1.696-2.398,1.92C304.982,177.098,306.359,175.927,307.08,176.161z"/>
	<path fill="#2B66AD" d="M135.72,178.561c-0.832,1.007-2.392,0.82-2.64-0.24C132.668,176.563,136.156,175.058,135.72,178.561z"/>
	<path fill="#2B66AD" d="M195.24,177.359c0.295,0.679,0.295,1.481,0,2.16c-0.82,0.393-2.068,0.281-2.64-0.24
		C191.666,177.479,193.873,176.127,195.24,177.359z"/>
	<path fill="#2B66AD" d="M266.28,177.359c1.659,1.847-1.277,3.896-2.88,2.4C263.242,177.844,264.33,177.17,266.28,177.359z"/>
	<path fill="#2B66AD" d="M288.119,177.839c-0.109,1.495-2.186,2.749-3.359,1.68C284.877,178.065,286.588,177.098,288.119,177.839z"
		/>
	<path fill="#2B66AD" d="M131.399,180.72c-0.597,0.037-0.743-0.377-1.2-0.48C129.619,175.851,134.443,179.098,131.399,180.72z"/>
	<path fill="#2B66AD" d="M354.119,179.52c-0.176,0.943-1.096,1.143-2.158,1.2C351.684,179.438,353.516,178.405,354.119,179.52z"/>
	<path fill="#2B66AD" d="M249.72,185.279c0.695-3.305,3.438-4.561,6.24-5.76C254.937,182.349,253.383,185.89,249.72,185.279z"/>
	<path fill="#2B66AD" d="M297.24,180.479c0.244,1.044-0.496,1.104-0.721,1.68c0.15,0.57,1.479-0.038,1.68,0.48
		c0.037,1.761-1.998,2.58-3.6,1.92c-0.299-1.498,0.771-1.63,1.439-2.16c-0.027-0.453-0.793-0.167-0.721-0.72
		C295.352,180.566,296.404,180.105,297.24,180.479z"/>
	<path fill="#2B66AD" d="M285.48,180.72c0.248,0.792-0.932,1.834,0.479,1.68c0.205,1.325-0.475,1.766-1.439,1.92
		c-0.479-0.753,0.482-1.876-0.959-1.92C283.281,180.865,284.332,180.122,285.48,180.72z"/>
	<path fill="#2B66AD" d="M118.2,180.72c0.572,0.487,1.083,1.979,0.48,2.88c-0.992,0.561-2.853,0.213-3.36-0.48
		C115.095,181.136,116.224,180.504,118.2,180.72z"/>
	<path fill="#2B66AD" d="M496.92,181.681c-2.004-0.009-3.996,1.438-6.959,1.2C491.146,181.646,495.398,180.988,496.92,181.681z"/>
	<path fill="#2B66AD" d="M320.76,182.399c0.016,2.548-3.307,3.541-6,5.04c-2.262,1.259-5.883,3.042-6.238-0.24
		c-0.17-1.555,1.941-3.857,3.84-4.32c1.02-0.249,2.236,0.136,3.359,0C317.547,182.659,319.576,181.167,320.76,182.399z"/>
	<path fill="#2B66AD" d="M303,183.121c-0.338,1.663-1.26,2.741-3.359,2.64C298.742,183.686,301.143,183.202,303,183.121z"/>
	<path fill="#2B66AD" d="M247.319,183.601c-0.228,2.013-0.634,3.845-2.641,4.08C244.992,185.882,245.692,183.294,247.319,183.601z"
		/>
	<path fill="#2B66AD" d="M265.56,184.8c0.37,1.431-1.339,1.725-2.16,1.2C262.991,184.533,264.7,184.238,265.56,184.8z"/>
	<path fill="#2B66AD" d="M261.72,187.439c-1.381,0.066-1.097-2.108-0.239-2.4C262.762,185.073,262.61,187.113,261.72,187.439z"/>
	<path fill="#2B66AD" d="M102.599,186c0,0.4,0,0.8,0,1.2c-0.467,0.336-1.546,0.784-2.16,0.24
		C100.116,185.727,101.649,185.093,102.599,186z"/>
	<path fill="#2B66AD" d="M265.8,189.601c-1.71-3.747,4.771-5.167,3.601-0.24C268.901,190.295,266.588,190.324,265.8,189.601z"/>
	<path fill="#2B66AD" d="M135.959,187.919c-0.691-0.029-1.571,0.131-1.92-0.24C133.749,185.986,136.471,186.157,135.959,187.919z"/>
	<path fill="#2B66AD" d="M23.159,187.681c1.01,1.553-1.304,2.966-2.4,1.68C20.483,187.811,21.924,186.944,23.159,187.681z"/>
	<path fill="#2B66AD" d="M114.599,187.919c1.149-0.029,1.44,0.8,1.44,1.92c-0.502,0.138-0.685,0.595-1.44,0.48
		C113.979,189.648,114.137,188.669,114.599,187.919z"/>
	<path fill="#2B66AD" d="M212.76,187.919c1.289-0.199,1.918,1.535,0.96,2.16C212.713,190.046,212.739,188.98,212.76,187.919z"/>
	<path fill="#2B66AD" d="M152.999,191.52c-0.817,0.642-1.907-0.047-2.64-0.24C149.941,188.794,153.373,189.534,152.999,191.52z"/>
	<path fill="#2B66AD" d="M182.999,192c-0.488,0.437-1.946,0.759-2.64,0.24C179.757,189.132,183.232,189.435,182.999,192z"/>
	<path fill="#2B66AD" d="M162.599,190.081c-0.077,0.557,0.039,0.921,0.24,1.2c2.524-0.524,2.211,1.789,2.16,3.84
		c-1.953,1.59-4.188,0.361-5.76,0c0.259-1.501,0.961-2.559,1.44-3.84c-0.188-0.531-1.486,0.046-1.2-0.96
		C161.256,190.828,160.909,190.429,162.599,190.081z"/>
	<path fill="#2B66AD" d="M281.641,190.561c0.258,2.63-1.693,3.604-4.081,2.88C278.149,191.877,279.732,189.264,281.641,190.561z"/>
	<path fill="#2B66AD" d="M210.6,193.919c-1.979,0.178-3.464-1.281-2.641-3.12C209.971,190.588,211.351,192.153,210.6,193.919z"/>
	<path fill="#2B66AD" d="M155.639,193.201c0.105,0.825-0.095,1.345-0.24,1.92c-0.539,0.52-2.334,0.728-3.12,0.24
		C150.946,193.06,154.334,191.432,155.639,193.201z"/>
	<path fill="#2B66AD" d="M196.2,193.439c0.493,0.387,0.557,1.203,0.48,2.16c-0.673,0.276-1.248,0.276-1.921,0
		C194.712,194.352,194.764,193.204,196.2,193.439z"/>
	<path fill="#FFFFFF" d="M232.2,193.919c1.077-0.038,1.279,0.8,1.92,1.2c0.097,2.977-0.854,4.905-2.64,6
		c-1.155-1.085-1.447-3.033-1.681-5.04C230.599,195.358,232.062,195.303,232.2,193.919z"/>
	<path fill="#2B66AD" d="M174.359,194.399c2.72,3.299-2.719,6.493-4.561,3.12C169.584,194.508,171.441,193.678,174.359,194.399z"/>
	<path fill="#2B66AD" d="M218.76,195.359c1.088-0.127,1.567,0.353,1.44,1.44c-0.454,0.476-1.134,0.117-1.68,0
		C218.488,196.208,218.483,195.644,218.76,195.359z"/>
	<path fill="#FFFFFF" d="M238.919,195.839c0.279-0.039,0.427,0.053,0.48,0.24c-0.771,1.55-1.801,2.839-2.4,4.56
		c-0.595-0.125-0.854-0.585-1.2-0.96C235.79,197.351,237.748,196.99,238.919,195.839z"/>
	<path fill="#2B66AD" d="M164.28,196.561c0.75,1.408-0.315,3.346-1.92,2.4C161.513,197.576,162.801,195.655,164.28,196.561z"/>
	<path fill="#2B66AD" d="M80.999,196.561c0.135,0.913,0.66,1.579,0.24,2.4C78.996,199.494,78.124,195.917,80.999,196.561z"/>
	<path fill="#2B66AD" d="M158.999,197.04c1.333,1.399,0.595,3.371-0.96,3.36C155.999,200.387,155.302,196.379,158.999,197.04z"/>
	<path fill="#2B66AD" d="M325.561,205.439c1.49-2.539,5.1-1.642,7.68-2.16c2.625-0.526,4.939-2.16,7.68-3.12
		c2.859-1.001,5.818-0.758,8.881-1.68c0.408-0.088,0.451,0.187,0.479,0.48C343.602,202.682,334.121,203.602,325.561,205.439z"/>
	<path fill="#2B66AD" d="M116.519,199.681c0.952,0.914,1.462,2.469,0.72,3.84C113.413,206.226,111.56,198.799,116.519,199.681z"/>
	<path fill="#2B66AD" d="M322.92,199.681c-0.486,1.512-2.135,1.866-4.08,1.92C319.225,199.983,320.988,199.748,322.92,199.681z"/>
	<path fill="#2B66AD" d="M85.079,200.399c1.333-0.214,1.572,0.668,1.44,1.92c-0.279-0.039-0.427,0.053-0.48,0.24
		C84.744,202.863,84.571,201.144,85.079,200.399z"/>
	<path fill="#2B66AD" d="M128.039,202.8c-1.036,0.156-1.345-0.415-1.92-0.72C125.645,199.065,129.519,200.849,128.039,202.8z"/>
	<path fill="#2B66AD" d="M288.84,202.8c-1.193,0.54-2.852,0.153-3.359-0.72C285.658,199.702,289.869,200.763,288.84,202.8z"/>
	<path fill="#2B66AD" d="M146.039,201.601c0.145,0.575,0.345,1.095,0.24,1.92c-1.071,0.64-2.729,0.089-3.12-0.72
		C142.888,201.045,145.054,200.708,146.039,201.601z"/>
	<path fill="#2B66AD" d="M195.72,202.8c-0.283,0.276-0.849,0.271-1.439,0.24C192.984,201.241,196.288,200.188,195.72,202.8z"/>
	<path fill="#2B66AD" d="M200.039,202.8c-0.284,0.276-0.848,0.271-1.439,0.24C197.305,201.241,200.608,200.188,200.039,202.8z"/>
	<path fill="#2B66AD" d="M193.079,202.081c0.873,3.921-3.366,3.622-3.6,1.44C189.317,202.005,191.55,200.395,193.079,202.081z"/>
	<path fill="#2B66AD" d="M183.72,207.121c-1.348,1.182-2.818-0.154-3.6-0.96c-0.728,0.32-1.384,0.854-2.16,0.48
		c-0.631-0.807,0.043-1.912,0.48-2.4c0.766-0.206,0.742,0.378,1.2,0.48C180.491,201.335,184.569,203.858,183.72,207.121z"/>
	<path fill="#2B66AD" d="M91.079,207.121c-0.933,0.505-1.828,0.041-2.4-0.48C88.023,203.696,92.016,204.481,91.079,207.121z"/>
	<path fill="#2B66AD" d="M135.959,205.919c2.2-0.535,2.791,0.573,2.88,1.92c0.206,3.09-4.314,4.091-5.04,1.44
		C133.219,207.158,134.617,206.247,135.959,205.919z"/>
	<path fill="#2B66AD" d="M158.519,208.081c-1.33,0.057-1.041-1.82-0.48-2.4C159.659,205.259,160.065,208.084,158.519,208.081z"/>
	<path fill="#2B66AD" d="M128.999,209.52c-1.45,0.17-2.313-0.247-2.64-1.2c-0.034-1.394,1.403-1.317,1.92-2.16
		C129.403,206.52,129.888,208.538,128.999,209.52z"/>
	<path fill="#2B66AD" d="M173.879,207.121c0.46,0.588,0.974,1.266,0.48,2.16c-0.957,0.077-1.773,0.013-2.16-0.48
		C172.008,207.488,172.568,206.929,173.879,207.121z"/>
	<path fill="#2B66AD" d="M180.359,214.081c-1.64,2.206-5.143,1.19-4.8-1.44C175.916,209.895,181.115,209.876,180.359,214.081z"/>
	<path fill="#2B66AD" d="M526.439,212.161c-0.307,1.781-4.99,2.061-5.76,0.48C520.949,210.181,525.264,211.353,526.439,212.161z"/>
	<path fill="#FFFFFF" d="M218.039,211.919c1.28,1.202-0.734,2.83-1.68,3.36c-0.481-0.399-1.115-0.644-1.2-1.44
		C216.828,213.909,216.946,212.427,218.039,211.919z"/>
	<path fill="#2B66AD" d="M98.28,214.319c1.806,1.292-0.342,4.328-2.16,2.64C95.902,215.143,96.372,214.013,98.28,214.319z"/>
	<path fill="#2B66AD" d="M116.519,214.561c4.737-1.729,5.481,6.395,0.96,6C114.818,220.328,113.587,215.63,116.519,214.561z"/>
	<path fill="#2B66AD" d="M139.559,219.359c-4.905,0.034-1.499-6.233,0.48-2.64C140.477,217.517,140.078,218.442,139.559,219.359z"/>
	<path fill="#2B66AD" d="M109.319,218.641c-0.566,0.183-1.658,0.473-2.16,0C106.369,216.111,110.11,216.111,109.319,218.641z"/>
	<path fill="#2B66AD" d="M326.76,218.879c-0.461,1.362-4.385,1.988-4.078-0.48C324.057,217.667,325.582,218.639,326.76,218.879z"/>
	<path fill="#2B66AD" d="M389.4,219.601c0.385,2.75-4.35,2.122-5.521,1.2c-3.494,3.137-10.344,2.005-15.359,0.96
		c0.688-1.242,2.256-0.813,3.6-1.2c1.092-0.314,2.23-1.268,3.361-1.44c2.117-0.323,4.439,0.816,6.719,0.72
		C384.918,219.726,387.438,217.515,389.4,219.601z"/>
	<path fill="#2B66AD" d="M139.319,221.279c1.016,0.757,1.016,3.803,0,4.561C135.279,226.952,135.052,220.078,139.319,221.279z"/>
	<path fill="#2B66AD" d="M94.439,224.399c-1,0.04-2.003,0.083-2.4-0.48C91.667,221.629,95.131,222.312,94.439,224.399z"/>
	<path fill="#2B66AD" d="M491.881,224.161c-5.812,1.147-12.52,0.416-19.439,0.72c-5.824,0.256-11.6,1.811-16.08,0
		c3.107-0.742,6.387,0.194,9.6-0.24c2.059-0.278,4.379-0.619,7.439-0.48C479.709,224.446,486.297,222.409,491.881,224.161z"/>
	<path fill="#2B66AD" d="M127.8,224.641c1.12,0,1.68,0.56,1.68,1.68c-0.585,0.515-1.424-0.172-1.92-0.479
		C127.483,225.284,127.598,224.918,127.8,224.641z"/>
	<path fill="#2B66AD" d="M149.159,225.359c0.535,0.565,0.739,2.138,0,2.64c-0.876,0.156-1.278-0.162-1.68-0.48
		C147.431,226.191,147.741,225.221,149.159,225.359z"/>
	<path fill="#2B66AD" d="M381,227.04c-2.428,0.51-5.486,2.481-8.16,1.2C371.48,223.147,379.217,226.085,381,227.04z"/>
	<path fill="#2B66AD" d="M169.56,228.24c-0.639-0.002-1.371,0.091-1.681-0.24C167.544,225.956,170.038,226.367,169.56,228.24z"/>
	<path fill="#2B66AD" d="M347.16,228.959c-0.904,1.454,0.828,1.516,0.959,2.64c-0.328,3.172-4.248,4.785-8.158,4.56
		c-1.982-0.114-5.945-1.471-5.041-3.84C336.018,229.445,343.23,227.683,347.16,228.959z"/>
	<path fill="#2B66AD" d="M477.48,235.919c-3.619,0.025-9.771,2.368-12.961-0.48c-0.723-0.842,0.42-1.357,0.48-2.16
		c-2.166-0.273-3.113,0.075-4.801-0.24c1.072-1.237,2.395-0.332,3.84-0.24c3.855,0.244,8.48-0.922,12.721-0.72
		c1.818,0.087,3.582,0.635,5.279,0.48c1.047-0.096,10.994-4.024,11.279-0.48c0.252,3.123-7.086,1.313-8.879,1.2
		C480.789,233.049,479.354,234.729,477.48,235.919z"/>
	<path fill="#2B66AD" d="M121.319,231.601c1.42,0.26,2.331,1.029,3.6,1.44c0,0.48,0,0.96,0,1.44c-0.469,0.281-1.343,0.789-1.92,0.24
		c0.317,2.712-2.974,4.176-4.56,2.16c-0.158-2.158,0.294-3.706,2.4-3.6C121.239,232.959,120.92,231.92,121.319,231.601z"/>
	<path fill="#2B66AD" d="M426.359,232.081c-1.51,0.802-4.82,0.84-6.719,0.48C420.66,231.475,425.346,231.583,426.359,232.081z"/>
	<path fill="#2B66AD" d="M130.919,237.121c-0.557,0.642-1.876,0.98-2.88,0.48C126.499,234.329,131.677,232.851,130.919,237.121z"/>
	<path fill="#2B66AD" d="M163.079,234.24c0.432,0.833,0.15,1.742-0.72,1.92C160.833,236.162,161.189,233.526,163.079,234.24z"/>
	<path fill="#2B66AD" d="M178.68,235.439c-0.117,1.083-0.976,1.424-2.159,1.44C175.445,235.553,177.627,234.642,178.68,235.439z"/>
	<path fill="#2B66AD" d="M452.52,236.641c-1.678,2.459-4.533,1.043-6.721,1.2c-2.822,0.202-5.619,0.978-8.641,1.2
		c-2.898,0.213-5.904,0.92-8.879,0.96c-1.32,0.018-2.553-0.311-3.84-0.24c-0.787,0.043-1.316,0.634-2.16,0.72
		c-0.959,0.097-2.139-0.518-3.121-0.48c-1.598,0.062-3.109,0.869-4.799,0.96c-7.291,0.393-15.521-0.45-22.32,0.48
		c-1.047,0.143-1.891,0.811-2.881,0.96c-4.859,0.733-9.908-0.061-14.879,0c-5.357,0.065-10.689,2-15.84,0.48
		c2.58-2.04,6.307-1.663,9.6-1.92c3.322-0.26,6.84-0.762,10.32-0.96c3.299-0.188,6.566,0.467,9.84,0.48
		c3.959,0.016,7.885-0.744,11.76-0.72c2.293,0.014,4.684,0.556,6.961,0.24c1.014-0.141,1.889-0.87,2.879-0.96
		c1.27-0.115,2.58,0.658,3.842,0.72c2.51,0.124,5.998-0.566,9.119-0.96c4.229-0.533,8.271-0.582,11.039-1.92
		c1.809,1.117,4.32,0.346,6.721,0.24c1.586-0.07,3.289,0.387,4.801,0.24C447.734,237.125,450.404,234.986,452.52,236.641z"/>
	<path fill="#2B66AD" d="M369.721,238.319c-0.609,0.59-2.232,0.625-3.119,0.24C366.244,236.952,369.826,236.859,369.721,238.319z"/>
	<path fill="#2B66AD" d="M124.2,240c-0.047,0.927-0.009,1.769,0.24,2.4c-1.019,1.266-2.617,2.177-4.32,0.96
		C119.325,240.02,122.387,237.857,124.2,240z"/>
	<path fill="#2B66AD" d="M128.28,241.201c-0.886,0.587-2.478,0.177-2.64-0.72C125.783,238.625,128.748,239.138,128.28,241.201z"/>
	<path fill="#2B66AD" d="M149.399,245.279c-2.5,0.021-4.074-0.885-3.84-3.6C147.49,238.233,151.397,241.758,149.399,245.279z"/>
	<path fill="#2B66AD" d="M342.119,244.561c-1.955,0.905-6.031,0.68-6.479-0.96C334.598,239.782,342.494,240.992,342.119,244.561z"/>
	<path fill="#2B66AD" d="M537,244.8c-3.514-0.166-7.85,0.49-10.08-0.96C529.711,242.827,534.695,243.732,537,244.8z"/>
	<path fill="#2B66AD" d="M435.961,246.72c-1.512,2.588-4.25,0.42-6.721,0c-5.77-0.98-13.758,0.772-18.961-1.44
		c0.105-0.295,0.309-0.493,0.721-0.479c4.836-1.125,11.605,0.563,17.041,0.96C430.924,245.97,433.758,244.944,435.961,246.72z"/>
	<path fill="#2B66AD" d="M537.961,244.561c2.043-0.124,3.615,0.224,5.279,0.48C542.354,246.519,538.678,245.54,537.961,244.561z"/>
	<path fill="#2B66AD" d="M157.8,246.479c0.152,0.808,0.689,1.231,0.48,2.4c-1.323,0.609-2.683-0.191-2.64-1.68
		C156.172,246.772,156.614,246.254,157.8,246.479z"/>
	<path fill="#2B66AD" d="M328.199,248.879c-1.906,1.2-4.516-0.226-5.279-1.68C324.562,246.116,328.453,246.034,328.199,248.879z"/>
	<path fill="#2B66AD" d="M125.639,249.839c-0.785,0.488-2.581,0.28-3.12-0.24C121.103,246.095,127.428,246.03,125.639,249.839z"/>
	<path fill="#2B66AD" d="M138.599,247.681c0.849-0.129,1.236,0.203,1.44,0.72c0.2,1.004-1.1,1.23-1.68,0.72
		C138.186,248.387,138.605,248.246,138.599,247.681z"/>
	<path fill="#2B66AD" d="M554.279,268.56c0,0.721,0,1.439,0,2.16c-4.482,2.107-9.061-0.994-13.439-1.68
		c-1.859-0.291-3.971,0.102-6,0c-6.643-0.334-13.572-2.781-19.68-3.84c-2.205-0.383-4.658-1.395-6.48-1.44
		c-1.209-0.031-2.592,0.629-3.84,0.72c-4.098,0.3-7.924-1-12.238-1.68c-6.012-0.946-12.85-0.523-19.441-1.92
		c-6.428-1.362-13.252-2.428-18.959-2.64c-3.779-0.14-6.625,1.125-9.119,1.44c-5.189,0.656-10.779-0.735-15.842-1.44
		c-5.043-0.703-10.275-2.347-15.359-2.16c-1.385,0.051-2.693,0.587-4.08,0.72c-5.285,0.505-9.455-0.535-13.68-1.44
		c-2.566-0.55-5.975-1.108-6.721-3.6c3.896-3.754,8.887-2.192,14.16-2.16c4.33,0.026,8.25-1.659,12.24-1.68
		c2.719-0.015,5.562,0.476,8.398,0.72c2.947,0.253,5.98,0.044,8.881,0.48c2.201,0.331,4.244,1.441,6.479,1.68
		c2.02,0.215,4.184-0.179,6.24,0.24c3.496,0.711,6.982,3.488,10.561,3.84c1.441,0.142,3.154-0.274,4.561-0.24
		c4.248,0.105,8.797,0.987,13.439,1.44c4.736,0.462,9.684,0.079,13.92,0.96c1.875,0.39,3.848,1.523,5.762,1.68
		c1.406,0.116,2.922-0.388,4.318-0.24c4.492,0.475,8.211,3.33,12.24,3.84c1.547,0.196,3.209-0.183,4.801,0
		c1.24,0.143,2.332,0.805,3.6,0.96c3.193,0.392,6.486-0.372,9.84,0c2.107,0.234,4.105,1.279,6.24,1.681
		c1.414,0.266,2.938,0.203,4.32,0.48c1.256,0.25,2.379,0.957,3.6,1.199C547.059,267.446,552.619,266.312,554.279,268.56z"/>
	<path fill="#2B66AD" d="M335.881,248.641c1.553-0.032,3.186-0.146,3.119,1.44C337.789,250.648,335.855,250.084,335.881,248.641z"/>
	<path fill="#2B66AD" d="M175.079,250.081c-0.617,2.598-3.043,4.616-5.76,4.32C169.98,251.937,172.219,248.773,175.079,250.081z"/>
	<path fill="#2B66AD" d="M116.28,252c-0.575,0.145-1.095,0.345-1.92,0.24C112.287,249.793,117.623,248.953,116.28,252z"/>
	<path fill="#2B66AD" d="M157.079,252.959C151.087,254.26,156.259,246.223,157.079,252.959L157.079,252.959z"/>
	<path fill="#2B66AD" d="M99.479,251.04c1.054,1.636,0.506,4.192-1.2,4.08C95.9,254.962,96.409,249.837,99.479,251.04z"/>
	<path fill="#2B66AD" d="M86.999,252.959c-0.141,0.85-1.93,0.956-2.64,0.48C83.672,250.856,87.426,250.109,86.999,252.959z"/>
	<path fill="#2B66AD" d="M120.119,252c1.702,1.339,0.908,4.783-1.92,4.32c-0.007-0.233-0.294-0.186-0.48-0.24
		C116.618,254.395,117.51,251.473,120.119,252z"/>
	<path fill="#2B66AD" d="M130.439,255.839c-0.309,0.331-1.042,0.238-1.68,0.24C128.241,254.043,130.731,253.953,130.439,255.839z"/>
	<path fill="#2B66AD" d="M112.439,255.359c0.077,0.563,0.379,0.901,0.24,1.68c-0.433,0.661-1.89,0.563-2.64,0.24
		c-0.175-0.955-0.175-0.965,0-1.92C110.634,255.15,111.9,254.892,112.439,255.359z"/>
	<path fill="#2B66AD" d="M368.041,262.561c-5.266-0.349-13.021,1.849-15.602-3.12c-0.004-1.044-0.078-2.159,0.24-2.88
		c4.42-3.343,10.42,0.262,12.479,3.6C366.311,260.771,368.402,260.438,368.041,262.561z"/>
	<path fill="#2B66AD" d="M133.8,255.359c0.577,0.349,0.688,2.016,0.24,2.64c-0.48,0-0.96,0-1.44,0
		C132.109,257.079,132.12,254.881,133.8,255.359z"/>
	<path fill="#2B66AD" d="M175.319,256.561c1.896-1.405,4.403-0.667,4.32,1.68c-0.061,1.69-1.523,1.863-2.16,2.88
		c-0.858,1.371-0.973,3.637-2.4,4.08C168.662,267.188,166.83,254.528,175.319,256.561z"/>
	<path fill="#2B66AD" d="M33.959,256.8c1.08,1.006,0.205,3.228-1.44,2.16C32.461,257.702,32.383,256.423,33.959,256.8z"/>
	<path fill="#FFFFFF" d="M319.32,257.04c2.904,0.799,6.363-0.177,7.199,2.88C323.451,260.352,319.547,259.771,319.32,257.04z"/>
	<path fill="#2B66AD" d="M152.28,257.279c0.191,0.449,0.401,0.879,0.48,1.44c-0.824,0.589-2.283,0.154-1.92-1.2
		C151.123,257.244,151.688,257.248,152.28,257.279z"/>
	<path fill="#2B66AD" d="M347.4,264.479c-2.305,0.064-3.891-0.591-4.32-2.4C345.164,261.318,346.891,262.878,347.4,264.479z"/>
	<path fill="#2B66AD" d="M179.64,268.56c-1.291-3.117,1.505-6.372,4.319-6.24c4.558,0.215,6.153,7.42-0.479,6.961
		C181.9,269.171,181.498,267.792,179.64,268.56z"/>
	<path fill="#2B66AD" d="M168.359,263.76c2.722-0.451,2.34,3.536-0.48,2.642C167.356,265.644,167.628,264.02,168.359,263.76z"/>
	<path fill="#2B66AD" d="M173.64,267.601c-0.12,1.318,0.265,3.145-0.24,4.08C168.051,274.853,166.782,263.721,173.64,267.601z"/>
	<path fill="#2B66AD" d="M193.079,267.601c1.588-0.316,2.014,1.564,1.44,2.641c-0.4,0-0.801,0-1.2,0
		C192.798,269.667,192.688,268.419,193.079,267.601z"/>
	<path fill="#2B66AD" d="M138.359,268.081c4.034-1.008,3.155,5.301,0.24,5.279C135.702,273.339,135.831,268.712,138.359,268.081z"/>
	<path fill="#2B66AD" d="M360.84,268.8c1.465-0.105,2.428,0.295,3.359,0.721C363.518,270.671,361.049,269.696,360.84,268.8z"/>
	<path fill="#2B66AD" d="M109.8,269.521c0.936,0.371,0.888,2.213,0.24,2.881c-0.916,0.115-1.532-0.068-1.92-0.48
		C108.066,270.507,108.52,269.601,109.8,269.521z"/>
	<path fill="#2B66AD" d="M146.76,271.44c-0.061,0.818-0.514,1.246-1.44,1.199C144.34,271.497,146.336,269.856,146.76,271.44z"/>
	<path fill="#2B66AD" d="M365.4,271.44c5.445,0.633,11.857,2.381,16.561,4.561c-2.365,0.209-5.482-0.896-8.4-1.68
		C370.646,273.538,367.617,272.663,365.4,271.44z"/>
	<path fill="#2B66AD" d="M211.8,281.521c0.155,1.057,1.748-0.936,1.921,0.721c-1.903,1.986-5.027,0.906-6-1.201
		c-1.783,0.492-2.877,3.227-5.521,3.602c-0.185-3.449-3.244-3.67-3.36-6.721c-0.224-5.869,8.064-5.377,10.561-1.68
		c-0.111,0.77-0.914,0.846-0.96,1.68c1.854,0.891,6.322,0.643,6.24,2.641C214.596,282.593,212.854,280.245,211.8,281.521z"/>
	<path fill="#2B66AD" d="M176.76,275.761C173.055,276.003,177.002,272.058,176.76,275.761L176.76,275.761z"/>
	<path fill="#2B66AD" d="M218.52,276.96c-0.61,0.631-1.647,0.963-2.4,0.24C215.514,274.091,218.688,274.522,218.52,276.96z"/>
	<path fill="#2B66AD" d="M218.76,278.401c1.144,0.316,1.685,1.428,0.96,2.398C218.683,280.778,218.264,279.194,218.76,278.401z"/>
	<path fill="#2B66AD" d="M162.839,279.601c1.208-0.148,1.821,1.242,1.2,2.16C162.747,281.933,162.777,280.782,162.839,279.601z"/>
	<path fill="#2B66AD" d="M124.439,280.56c0.534,0.586,0.879,1.361,0.72,2.641c-0.557,0.643-1.877,0.98-2.88,0.48
		C121.74,282.171,122.32,280.163,124.439,280.56z"/>
	<path fill="#2B66AD" d="M333.961,282.96c-1.312,0.521-3.627,0.156-3.602-1.439C331.721,280.948,333.988,281.362,333.961,282.96z"/>
	<path fill="#2B66AD" d="M510.84,283.2c-1.166,0.451-3.793,0.488-4.08-0.721C506.836,280.265,511.209,281.304,510.84,283.2z"/>
	<path fill="#2B66AD" d="M375.48,285.601c-2.947,0.682-8.551,1.004-8.16-3.121C371.236,279.923,373.598,283.282,375.48,285.601z"/>
	<path fill="#2B66AD" d="M159.24,282.241c0,0.398,0,0.799,0,1.199c-0.31,0.33-1.042,0.238-1.68,0.24
		C156.531,282.521,158.216,281.349,159.24,282.241z"/>
	<path fill="#2B66AD" d="M310.199,282.241c0.045,3.715,5.172,2.348,6.961,4.318c-1.627,0.188-2.553-0.326-4.08-0.238
		c-0.428,1.367,1.51,2.285,1.439,4.08c4.787-1.092,7.406,1.371,11.521,1.68c1.305,1.574,4.172,1.586,4.561,4.08
		c-1.637,0.195-2.201-0.68-3.361-0.961c-0.994,3.469,2.826,6.08,6,6.961c-1.908,3.461-4.455-1.506-7.199-2.16
		c-2.18-0.52-5.256,0.723-6.721-0.721c-1.146,8.848,10.85,10.137,15.359,15.359c0.889-0.07,0.863-1.057,2.16-0.721
		c1.715,0.801,2.195,2.895,3.602,4.08c1.121,0.947,2.871,1.07,4.08,1.92c2.471,1.736,4.391,4.242,7.439,4.801
		c0.369,0.51,0.689,1.068,0.959,1.682c3.217,0.412,5.549,2.727,8.16,4.559c4.273,3,9.166,3.904,11.76,8.4
		c3.379,0.701,4.475,3.688,7.92,4.32c1.104,1.139,2.568,1.91,3.602,3.119c6.23,1.369,8.404,6.795,14.16,8.641
		c1.645,2.514,4.908,3.41,7.92,4.561c1.131,3.27,5.641,3.158,7.199,6c2.834-0.137,3.896,2.982,6,4.08
		c0.502,0.262,1.398,0.164,1.92,0.479c3.266,1.977,6.229,5.764,10.08,7.439c2.709,1.182,4.158,2.521,6.479,4.32
		c1.596,1.236,3.912,1.562,4.561,3.602c-4.307-0.588-7.408-3.594-10.561-6c-3.217-2.461-6.363-5.264-10.561-6.48
		c-1.406-2.754-4.924-3.395-6.719-5.76c-0.498-0.145-1.578,0.297-1.682-0.24c-1.451-2.148-4.939-2.26-6-4.801
		c-0.449-0.352-1.59-0.01-1.92-0.479c-2.562-2.637-7.121-3.279-9.119-6.48c-4.295-0.385-6.096-4.426-9.84-6.721
		c-1.393-0.854-3.033-1.477-4.561-2.16c-1.664-0.742-2.797-1.961-4.08-2.639c-0.906-0.479-1.953-0.279-2.641-0.721
		c-1.156-0.742-1.633-2.455-2.641-3.359c-2.648-2.377-7.457-3.098-11.039-5.281c-4.133-2.518-6.844-5.873-11.762-7.68
		c-0.244-0.314-0.234-0.885-0.479-1.199c-6.691-3.688-12.883-7.963-18.961-12.479c-3.039-2.262-6.199-4.564-9.6-6.24
		c-3.27-1.615-7.625-2.301-9.6-6c0.033-0.848,1.076-0.684,1.68-0.961c-0.768-2.672-3.893-2.986-5.76-4.561
		c-0.076-1.355,0.062-2.496,0.479-3.359c-3.756-0.727-6.293-2.666-5.76-7.68C303.213,282.614,306.301,282.021,310.199,282.241z"/>
	<path fill="#2B66AD" d="M194.999,285.601c-0.555,0.482-1.841,0.244-2.16-0.24C192.353,282.276,195.5,283.083,194.999,285.601z"/>
	<path fill="#2B66AD" d="M98.28,283.44c2.362,1.756-0.338,6.133-3.12,4.08c0.039-0.279-0.053-0.428-0.24-0.48
		C95.01,284.812,95.831,283.313,98.28,283.44z"/>
	<path fill="#2B66AD" d="M355.561,291.36c-1.521,1.24-4.051,0.752-6.48,1.439c-1.459,0.412-2.646,1.254-4.08,1.439
		c-5.65,0.734-10.92-1.117-12.24-5.279c-0.848-5.676,6.6-6.209,10.561-3.6c0.645,0.422,0.957,1.436,1.682,1.92
		c2.771,1.854,7.066,1.898,8.158,4.08C353.961,291.36,354.76,291.36,355.561,291.36z"/>
	<path fill="#2B66AD" d="M322.439,286.081c-1.002,0.121-1.625-0.135-2.16-0.48c0-0.238,0-0.479,0-0.721
		C321.172,284.286,322.686,284.776,322.439,286.081z"/>
	<path fill="#2B66AD" d="M200.52,290.161c-1.273-3.926,2.257-6.092,4.8-4.32c1.962,1.367,1.662,5.604-0.96,6
		C202.685,292.095,201.747,290.88,200.52,290.161z"/>
	<path fill="#2B66AD" d="M181.8,286.321c0.596,1.199,0.646,2.947-0.479,3.6C178.111,290.401,178.87,284.755,181.8,286.321z"/>
	<path fill="#2B66AD" d="M194.52,288.479c0.138,1.498-0.1,2.623-1.681,2.4C191.631,289.716,193.117,287.034,194.52,288.479z"/>
	<path fill="#2B66AD" d="M323.16,290.161c-1.135-0.305-2.6-0.281-2.641-1.682C321.801,287.771,322.752,289.222,323.16,290.161z"/>
	<path fill="#2B66AD" d="M213.24,292.321c-2.066,0.525-4.329-0.559-4.08-3.121C211.13,287.562,213.964,289.12,213.24,292.321z"/>
	<path fill="#2B66AD" d="M285.721,289.681c1.859,0.939,5.158,0.439,6.721,1.68c-0.771,1.58,1.08,1.307,1.199,2.641
		c0.115,0.996-1.385,0.375-1.439,1.199c0.383,1.059,1.779,1.102,1.68,2.641c-1.814,0.711-3.889-0.006-4.561-1.199
		c-0.631-0.07-0.188,0.932-0.959,0.721C285.945,296.331,283.861,292.798,285.721,289.681z"/>
	<path fill="#2B66AD" d="M195.959,290.64c0.24,0,0.48,0,0.721,0c0.411,0.389,0.596,1.004,0.479,1.92c-0.4,0-0.8,0-1.2,0
		C195.607,292.21,195.607,290.989,195.959,290.64z"/>
	<path fill="#2B66AD" d="M298.68,292.8c-1.111,0.072-1.658-0.422-1.68-1.439C298.043,290.45,299.238,292.11,298.68,292.8z"/>
	<path fill="#2B66AD" d="M379.801,295.44c-4.422,1.229-9.135-1.652-12.48-0.721c0.002-0.43-0.646-1.396,0-1.68
		c1.314-0.666,4.412,0.488,6.961,0.721C376.568,293.968,379.586,293.429,379.801,295.44z"/>
	<path fill="#2B66AD" d="M453.24,293.04c1.574,0.275,2.289,0.393,3.84,0.959C456.297,294.79,453.789,293.989,453.24,293.04z"/>
	<path fill="#2B66AD" d="M265.8,297.12c-1.379,0.273-3.366-0.1-3.119-2.16C264.217,294.288,266.023,295.249,265.8,297.12z"/>
	<path fill="#2B66AD" d="M455.4,296.161c3.514,0.324,6.031,1.646,8.641,2.879C461.736,299.382,457.1,298.011,455.4,296.161z"/>
	<path fill="#2B66AD" d="M153.479,300.241c-0.474,0.389-1.747,0.771-2.4,0.238C150.388,298.079,154.157,297.399,153.479,300.241z"/>
	<path fill="#2B66AD" d="M191.64,306.96c-2.539-0.502-4.848-1.232-5.761-3.359c-0.386-1.752,0.924-3.068,0.48-4.08
		C191.047,295.759,195.118,303.263,191.64,306.96z"/>
	<path fill="#2B66AD" d="M465.721,299.761c3.938,0.541,7.191,1.768,10.08,3.359C472.508,303.841,468.588,301.062,465.721,299.761z"
		/>
	<path fill="#2B66AD" d="M150.599,302.64c-0.876,0.156-1.278-0.16-1.68-0.479C148.514,299.009,152.029,300.056,150.599,302.64z"/>
	<path fill="#2B66AD" d="M73.319,306.241c-0.689-2.672,1.834-4.387,3.36-2.641C77.269,306.067,75.234,307.063,73.319,306.241z"/>
	<path fill="#2B66AD" d="M211.079,302.88c0.481,0.512,0.743,2.143,0.24,2.881c-0.4,0-0.8,0-1.2,0
		C209.71,304.919,209.524,302.526,211.079,302.88z"/>
	<path fill="#2B66AD" d="M146.28,303.601c0.033,1.873-1.415,2.266-2.88,2.641C143.042,304.149,144.696,302.239,146.28,303.601z"/>
	<path fill="#2B66AD" d="M269.399,305.761c-0.52,0.199-0.818,0.621-1.681,0.479c-0.002,0.639,0.091,1.371-0.239,1.68
		c-0.671,0.449-1.566,0.676-2.4,0.961c0.314,2.105,1.729,4.943,0.24,6.721c-5.751,1.338-10.716-2.018-10.8-7.92
		c1.62-2.098,6.473-3.043,8.64-1.201c0.702-0.258,0.258-1.66,0.96-1.92c0.472-0.477,1.371-0.152,1.92,0
		C266.491,302.364,270.053,302.909,269.399,305.761z"/>
	<path fill="#2B66AD" d="M204.6,303.839c0.061,0.82,0.606,1.154,0.479,2.16c-1.273,0.154-1.637-0.602-2.16-1.199
		C202.927,303.929,203.625,303.745,204.6,303.839z"/>
	<path fill="#2B66AD" d="M330.359,305.999c-0.623,0.877,0.479,1.078,0,1.682c-1.766,0.166-2.846-0.355-2.879-1.92
		C328.219,305.257,329.85,305.521,330.359,305.999z"/>
	<path fill="#2B66AD" d="M283.08,306.72c1.324-0.205,1.766,0.475,1.92,1.439C284.027,308.823,282.305,307.854,283.08,306.72z"/>
	<path fill="#2B66AD" d="M136.919,307.2c0.201,0.52,0.622,0.818,0.48,1.68c-0.519,0.201-0.818,0.621-1.68,0.48
		c-0.106-0.213-0.211-0.43-0.48-0.48C135.306,307.827,135.498,306.899,136.919,307.2z"/>
	<path fill="#2B66AD" d="M92.28,308.401c-0.008,0.871-0.706,1.053-1.68,0.959C90.041,307.517,92.04,306.788,92.28,308.401z"/>
	<path fill="#2B66AD" d="M301.08,322.081c-3.939-1.021-2.738-7.184-6.961-7.92c0.387-2.182-2.303-4.541,0-5.041
		c0.607-0.131,1.879,0.945,2.4,1.682c0.908,1.279,1.779,3.805,3.121,5.76C301.014,318.563,303.4,320.896,301.08,322.081z"/>
	<path fill="#2B66AD" d="M308.76,311.04c-1.904-0.096-2.67-0.594-3.359-1.439C306.279,309.655,308.578,308.399,308.76,311.04z"/>
	<path fill="#2B66AD" d="M98.28,309.839c0.183,1.703-0.524,2.518-1.44,3.121C94.408,312.509,96.305,307.917,98.28,309.839z"/>
	<path fill="#2B66AD" d="M266.28,309.36c2.481,3.758,3.642,8.838,6.96,11.76c-2.321,2.076,2.837,5.141,0.479,7.201
		c-2.04-0.207-1.142-2.215-1.439-3.361C270.899,319.657,266.665,314.767,266.28,309.36z"/>
	<path fill="#2B66AD" d="M209.879,310.56c0.24,0,0.48,0,0.721,0c-0.633,2.312,1.364,1.996,1.68,3.359
		c0.083,1.604-1.425,1.615-1.92,2.641c-0.517,1.244,0.244,3.766-0.721,4.561C207.301,318.706,209.479,313.347,209.879,310.56z"/>
	<path fill="#2B66AD" d="M244.439,311.04c1.289-0.199,1.918,1.533,0.96,2.16C244.185,313.423,244.011,311.704,244.439,311.04z"/>
	<path fill="#2B66AD" d="M291.24,315.12c-1.902,0.363-3.82-1.066-3.84-3.359C289.459,310.474,291.621,312.452,291.24,315.12z"/>
	<path fill="#2B66AD" d="M172.439,312.72c0.239,0,0.479,0,0.72,0c0.14,0.934,0.801,1.828,0,2.4
		C171.54,315.321,171.938,313.47,172.439,312.72z"/>
	<path fill="#2B66AD" d="M194.52,314.64c-0.577,0.549-1.451,0.041-1.92-0.238C192.305,312.228,194.837,312.933,194.52,314.64z"/>
	<path fill="#2B66AD" d="M245.879,313.681c1.083,0.275,1.078,1.643,1.2,2.879c-1.68,0.08-2.322-0.877-2.399-2.398
		C245.137,314.058,245.283,313.644,245.879,313.681z"/>
	<path fill="#2B66AD" d="M326.52,315.36c-1,0.039-2.002,0.084-2.4-0.48c0-0.318,0-0.639,0-0.959
		C325.129,313.343,326.812,313.868,326.52,315.36z"/>
	<path fill="#2B66AD" d="M73.319,315.839c-0.979,0.268-1.459,0.051-2.16-0.479C70.789,313.122,74.022,313.747,73.319,315.839z"/>
	<path fill="#2B66AD" d="M275.159,319.2c-1.314-0.047-1.085,1.078-2.4,0.48c0.358-2.439-1.978-2.184-2.159-4.08
		C272.417,312.981,276.729,316.089,275.159,319.2z"/>
	<path fill="#2B66AD" d="M152.999,315.12c1.451,1.984,0.399,4.691-1.68,4.561C148.271,319.487,149.191,313.72,152.999,315.12z"/>
	<path fill="#2B66AD" d="M318.84,317.521c-0.914,0.551-2.193-0.275-2.16-1.439C317.766,315.358,318.727,316.503,318.84,317.521z"/>
	<path fill="#2B66AD" d="M194.76,323.28c-3.993,0.635-5.839-5.604-2.399-6C194.885,316.989,196.573,320.755,194.76,323.28z"/>
	<path fill="#2B66AD" d="M313.08,317.521c1.521,0,2.266,0.773,2.4,2.16c-0.875-0.074-1.562,0.037-2.16,0.238
		C313.307,318.995,312.758,318.554,313.08,317.521z"/>
	<path fill="#2B66AD" d="M349.801,321.12c-1.148,0.109-1.818-0.26-2.16-0.959C348.018,318.405,349.969,319.634,349.801,321.12z"/>
	<path fill="#2B66AD" d="M420.84,319.2c3.797,0.686,6.355,2.605,9.359,4.08c-0.654,1.805-2.252-0.197-3.359-0.721
		C424.674,321.538,421.883,321.226,420.84,319.2z"/>
	<path fill="#2B66AD" d="M384.359,322.321c-1.191,0.072-2.197-0.043-2.641-0.721C381.953,319.981,384.52,320.813,384.359,322.321z"
		/>
	<path fill="#2B66AD" d="M246.119,326.401c-2.852,0.713-2.457-3.506-1.439-4.562C246.501,321.97,247.104,324.952,246.119,326.401z"
		/>
	<path fill="#2B66AD" d="M365.16,324.96C360.891,324.827,365.068,320.649,365.16,324.96L365.16,324.96z"/>
	<path fill="#2B66AD" d="M287.16,323.04c1.568,0.91,2.779,2.18,3.119,4.32C288.719,326.442,287.812,324.866,287.16,323.04z"/>
	<path fill="#2B66AD" d="M219.24,323.999c0.389,1.131,0.931,2.109,0.72,3.84C216.862,328.735,215.343,322.53,219.24,323.999z"/>
	<path fill="#2B66AD" d="M396.6,325.919c-1.342,0.062-2.434-0.127-2.4-1.439C395.295,323.817,396.535,324.786,396.6,325.919z"/>
	<path fill="#2B66AD" d="M68.999,328.8c0.039-0.279-0.053-0.428-0.24-0.479c-0.019-2.26,0.986-3.494,3.36-3.361
		C74.466,326.665,71.672,330.79,68.999,328.8z"/>
	<path fill="#2B66AD" d="M340.92,324.96c1.865-0.025,2.396,1.285,3.121,2.4C342.49,328.017,339.932,326.817,340.92,324.96z"/>
	<path fill="#2B66AD" d="M212.28,325.919c0.679,3.334,1.096,6.893,0.72,10.561c-0.176,1.721-1.253,3.514-1.2,5.041
		c0.034,0.982,0.814,1.93,0.96,2.881c0.688,4.488-2.091,9.039-2.64,13.68c-0.118,0.992,0.178,2.012,0,2.879
		c-0.278,1.361-1.473,2.445-1.92,3.842c-0.955,2.979-0.2,7.326-3.12,9.119c-2.151-1.854,1.488-3.66,0.72-6.479
		c1.815-1.074,1.188-2.9,1.681-5.762c0.27-1.57,1.542-3.025,1.68-4.318c0.218-2.049-0.527-3.947-0.24-5.762
		c0.236-1.492,1.66-2.742,1.92-4.318c0.15-0.912-0.274-1.984-0.239-2.881c0.042-1.047,0.597-2.035,0.72-3.119
		C211.892,336.263,210.439,330.585,212.28,325.919z"/>
	<path fill="#2B66AD" d="M310.199,326.401c1.361-0.002,2.008,0.711,1.92,2.158C310.875,328.532,309.5,327.603,310.199,326.401z"/>
	<path fill="#2B66AD" d="M185.879,328.081c1.064,0.889-0.425,3.205-1.439,3.6C184.648,330.208,185.175,329.056,185.879,328.081z"/>
	<path fill="#2B66AD" d="M351.721,330.479c-1.334,0.135-2.172-0.229-2.16-1.439C350.492,328.472,351.988,329.081,351.721,330.479z"
		/>
	<path fill="#2B66AD" d="M135.479,335.521c-1.45-0.998-1.397-4.35,0.48-4.32C137.652,331.226,138.632,335.735,135.479,335.521z"/>
	<path fill="#2B66AD" d="M233.64,334.081c-1.535-0.047-2.562-1.402-1.921-2.881C233.54,330.874,234.287,332.716,233.64,334.081z"/>
	<path fill="#2B66AD" d="M287.4,332.64c0.307,0.496,0.994,1.336,0.479,1.92c-1.098-0.102-1.877-0.521-1.92-1.68
		C286.244,332.604,286.809,332.608,287.4,332.64z"/>
	<path fill="#2B66AD" d="M121.8,337.2c-2.522,0.074-1.682-3.572-0.48-4.32C123.159,332.853,123.255,336.704,121.8,337.2z"/>
	<path fill="#2B66AD" d="M159.72,336.479c-1.959,0.367-1.529-2.264-0.96-3.119C160.296,333.134,160.604,335.767,159.72,336.479z"/>
	<path fill="#2B66AD" d="M296.76,336.479c-1.33-0.109-2.051-0.828-2.158-2.158C295.346,332.483,297.744,335.116,296.76,336.479z"/>
	<path fill="#2B66AD" d="M319.32,333.601c1.199,0.318,1.951,1.088,2.398,2.16C320.158,335.901,318.625,334.938,319.32,333.601z"/>
	<path fill="#2B66AD" d="M278.999,341.28c-1.396-0.668-4.048-2.02-3.84-3.6C275.51,335.021,279.916,337.845,278.999,341.28z"/>
	<path fill="#2B66AD" d="M289.801,337.2c0.201,0.52,0.621,0.818,0.479,1.68c-1.252,0.133-2.133-0.105-1.92-1.438
		C288.645,337.165,289.209,337.167,289.801,337.2z"/>
	<path fill="#2B66AD" d="M174.119,338.64c1.29,0.311,1.524,1.678,1.44,3.359c-0.526,0.273-0.98,0.619-1.92,0.48
		C172.941,341.831,172.715,338.657,174.119,338.64z"/>
	<path fill="#2B66AD" d="M269.64,339.12c0.399,0,0.8,0,1.199,0c0.297,0.664,0.701,1.219,0.721,2.16
		C270.319,341.161,269.483,340.638,269.64,339.12z"/>
	<path fill="#2B66AD" d="M514.68,339.12c4.408,0.312,7.691,1.75,11.041,3.121c-3.234,0.742-7.594-1.52-10.561-2.641
		C514.752,339.688,514.707,339.413,514.68,339.12z"/>
	<path fill="#2B66AD" d="M141.72,340.8c-0.02,2.061-1.096,3.064-2.64,3.602C139.296,342.538,140.378,341.54,141.72,340.8z"/>
	<path fill="#2B66AD" d="M37.319,341.761c0.733,1.748-0.557,3.4-2.4,3.359C35.097,343.378,35.478,341.839,37.319,341.761z"/>
	<path fill="#2B66AD" d="M525.961,342.479c2.332,0.629,6.008-0.088,6.479,2.4C530.459,344.792,527.414,343.876,525.961,342.479z"/>
	<path fill="#2B66AD" d="M260.52,346.321c-1.75-0.17-2.596-1.246-2.88-2.881C259.172,341.356,261.581,344.362,260.52,346.321z"/>
	<path fill="#2B66AD" d="M190.439,342.96c1.132,0.629,1.337,3.641,0.479,4.801c-2.767,0.77-5.081-2.055-4.56-4.561
		C187.521,343.415,188.449,343.009,190.439,342.96z"/>
	<path fill="#2B66AD" d="M173.399,348.96c-1.067-1.457,0.766-4.09,1.68-2.16C174.846,347.849,174.904,349.185,173.399,348.96z"/>
	<path fill="#2B66AD" d="M291.24,349.44c1.658,1.105,5.246,2.691,3.359,5.76c-1.146-1.73-2.492-3.268-3.84-4.799
		C290.885,350.044,291.115,349.794,291.24,349.44z"/>
	<path fill="#2B66AD" d="M282.6,351.12c2.229,2.41,3.969,5.314,3.84,10.08C284.797,358.204,283.752,354.608,282.6,351.12z"/>
	<path fill="#2B66AD" d="M310.199,352.081c0.16,0,0.32,0,0.48,0c1.869,1.012,1.9,3.857,3.119,5.52
		C311.902,356.601,309.652,354.733,310.199,352.081z"/>
	<path fill="#2B66AD" d="M320.52,358.321c-2.076,0.199-3.637-1.271-2.879-3.121C319.66,355.118,320.977,356.687,320.52,358.321z"/>
	<path fill="#2B66AD" d="M44.76,357.601c-0.539,2.596-2.718,4.779-5.28,4.561C40.494,359.896,41.874,357.995,44.76,357.601z"/>
	<path fill="#2B66AD" d="M241.079,366.241c-1.401-1.959-3.172-3.549-3.12-6.961C241.261,356.813,241.795,363.179,241.079,366.241z"
		/>
	<path fill="#2B66AD" d="M15.72,363.12c-0.117,1.738-0.427,2.992-1.68,3.121C10.31,366.622,13.164,359.706,15.72,363.12z"/>
	<path fill="#2B66AD" d="M523.08,372.72c-1.049,0.33-2.979-0.629-5.039-1.199c-2.115-0.584-4.799-0.809-4.32-3.84
		c1.637-1.23,4.188-0.742,5.52,0.24c0.604,0.443,0.82,1.6,1.441,2.158C521.678,370.979,523.973,371.077,523.08,372.72z"/>
	<path fill="#2B66AD" d="M149.879,371.28c-0.185,3.016-0.44,5.959-2.64,6.961C147.93,375.731,147.536,372.138,149.879,371.28z"/>
	<path fill="#2B66AD" d="M282.119,377.04c-1.51-0.648-3.01-1.309-3.12-3.359C280.807,372.456,282.146,374.933,282.119,377.04z"/>
	<path fill="#2B66AD" d="M332.76,373.2c0.24,0,0.48,0,0.721,0c1.834,3.527,5.031,5.689,6,10.08
		c-2.559-2.721-4.066-6.494-6.721-9.119C332.482,373.806,332.482,373.556,332.76,373.2z"/>
	<path fill="#2B66AD" d="M265.56,375.601c1.022,1.057,0.376,3.783,1.199,5.039c-1.508-0.971-2.446-2.512-2.64-4.799
		C264.403,375.563,264.968,375.569,265.56,375.601z"/>
	<path fill="#2B66AD" d="M276.839,380.161c-1.407-0.633-3.767-2.92-2.16-4.32C276.378,376.302,276.801,378.04,276.839,380.161z"/>
	<path fill="#2B66AD" d="M283.08,378.479c0.24,0,0.48,0,0.721,0c0.867,0.492,0.809,1.912,0.959,3.121
		C282.957,381.804,283.084,380.075,283.08,378.479z"/>
	<path fill="#2B66AD" d="M300.6,383.521c1.422-0.057,2.115,2.682,2.641,4.32C301.773,386.987,301.41,385.03,300.6,383.521z"/>
	<path fill="#2B66AD" d="M373.561,383.28c2.52-0.133,4.23,1.594,3.84,3.602C374.984,386.815,373.543,385.776,373.561,383.28z"/>
	<path fill="#2B66AD" d="M180.6,386.401c2.44,0.566,0.775,3.418,0.96,4.799C180.72,390.505,179.478,388.079,180.6,386.401z"/>
	<path fill="#2B66AD" d="M228.6,387.12c2.059-0.299,1.649,1.871,2.159,3.121C228.811,390.429,228.574,388.905,228.6,387.12z"/>
	<path fill="#2B66AD" d="M303.721,389.28c1.395,1.807,2.17,4.23,2.881,6.721C304.961,394.438,304.258,391.942,303.721,389.28z"/>
	<path fill="#2B66AD" d="M494.52,396.479c1.719,0.203,2.658,1.182,3.359,2.4C497.355,399.274,494.287,398.409,494.52,396.479z"/>
	<path fill="#2B66AD" d="M183.479,398.64c1.124,2.033,0.04,5.939-1.44,6.961C181.854,402.614,183.073,401.034,183.479,398.64z"/>
	<path fill="#2B66AD" d="M305.16,405.36c0.387-0.066,0.412,0.229,0.721,0.24c2.789,5.318,4.887,11.482,7.439,17.279
		C309.918,417.722,307.596,411.483,305.16,405.36z"/>
	<path fill="#2B66AD" d="M543.721,418.8c-5.881-2.439-10.527-6.111-15.602-9.359c0.039-0.279-0.053-0.428-0.238-0.479
		c0.084-0.275,0.422-0.609,0.479-0.24c3.266,1.773,6.887,3.195,9.121,6C539.834,415.808,542.191,416.89,543.721,418.8z"/>
	<path fill="#2B66AD" d="M367.561,419.761c-0.863,0.861-1.295-0.705-2.4-1.201c-1.104-0.492-2.344-0.172-3.119-0.959
		c-0.732-0.742-1.232-2.189-0.48-3.359C365.52,414.12,365.537,417.944,367.561,419.761z"/>
	<path fill="#2B66AD" d="M435.721,415.921c1.029,0.25,1.527,1.029,1.439,2.398C435.926,418.362,434.801,416.524,435.721,415.921z"/>
	<path fill="#2B66AD" d="M254.999,416.401c-0.077,1.115,0.479,1.602,0.48,2.641c-1.314-0.047-1.57-1.15-1.681-2.4
		C254.378,416.739,254.321,416.202,254.999,416.401z"/>
	<path fill="#2B66AD" d="M490.92,424.321c2.17,0.148,2.832,1.809,3.84,3.119c-2.139,0.139-3.227-0.771-4.08-1.92
		C490.604,424.964,490.719,424.599,490.92,424.321z"/>
	<path fill="#2B66AD" d="M388.68,432.96c0.309,0.496,0.994,1.336,0.48,1.92c-0.896,0.018-1.375-0.387-1.68-0.959
		c0-0.24,0-0.48,0-0.721C387.758,432.999,388.123,432.884,388.68,432.96z"/>
	<path fill="#2B66AD" d="M250.2,441.841c-2.107-1.902-5.325-3.941-4.8-7.682C249.617,433.737,248.605,439.839,250.2,441.841z"/>
	<path fill="#2B66AD" d="M423,436.321c2.586-0.105,3.314,1.646,3.84,3.6c-1.639-0.602-3.219-1.262-4.08-2.641
		C422.73,436.851,423.055,436.774,423,436.321z"/>
	<path fill="#2B66AD" d="M387.24,442.56c0.279-0.039,0.428,0.055,0.479,0.24c3.621,3.824,7.312,7.766,10.08,12.48
		c0.787,1.338,2.107,2.088,3.121,3.359c3.143,3.943,5.404,9.139,8.879,12.959c1.596,1.754,2.762,3.459,4.32,5.762
		c0.807,1.189,2.406,2.213,2.16,3.84c-3.373-1.604-5.236-5.311-7.199-8.4c-5.07-7.973-11.15-15.324-17.281-22.799
		c-1.848-2.256-3.512-3.822-4.561-6.721C387.24,443.04,387.24,442.8,387.24,442.56z"/>
	<path fill="#2B66AD" d="M98.519,448.081c0.337,1.443-0.35,3.545-1.44,4.32C96.887,450.981,96.094,447.603,98.519,448.081z"/>
	<path fill="#2B66AD" d="M341.641,479.761c1.811,0.027,2.197,1.48,2.158,3.359C342.17,483.026,340.893,481.448,341.641,479.761z"/>
	<path fill="#2B66AD" d="M153.959,492.001c0.983,4.219-1.576,6.875-2.88,9.6c-0.211,2.188,0.35,5.15-2.16,5.039
		c-0.662-1.611,0.81-2.252,1.44-4.08C151.664,498.774,150.573,493.118,153.959,492.001z"/>
	<path fill="#2B66AD" d="M461.881,527.04c-0.48,0-0.961,0-1.439,0c-2.188-5.814-6.896-9.105-8.641-15.359
		c-3.709-4.293-7.646-8.354-10.08-13.92c1.012-0.385,2.146,1.125,2.881,1.92c2.848,3.086,4.932,7.367,6.719,11.039
		c1.969,2.799,4.91,5.176,6.48,8.4c0.369,0.758,0.33,1.652,0.721,2.398C459.48,523.366,461.936,524.563,461.881,527.04z"/>
	<path fill="#2B66AD" d="M71.879,507.12c-0.149,1.611-0.34,3.182-1.92,3.359C69.676,508.528,70.388,505.79,71.879,507.12z"/>
	<path fill="#2B66AD" d="M257.64,179.04c0.18-0.82-0.976-0.305-0.721-1.2c0.97-0.872,1.417-2.263,3.12-2.4
		c0.188,1.386-0.789,1.611-1.2,2.4c0.784,0.337,1.629,0.611,2.16,1.2c0.872,1.867,0.786,5.338-1.68,5.28
		c-0.866,2.032-2.604,4.411-1.92,7.2c3.498,0.273,5.818,3.672,9.12,2.16c5.216-2.39,8.393-10.365,11.76-14.64
		c3.969,3.77-1.645,7.96-2.88,11.04c-2.454,0.986-3.787,3.093-4.32,6c0.033,0.847,0.688,1.073,0.72,1.92
		c0.188,1.248-0.956,2.106-0.479,2.88c1.362,1.508,3.755-1.42,5.28,0.24c0.476,0.903-0.062,1.724-0.48,2.4
		c2.312,4.778,9.207-0.24,13.68,0.96c1.115-1.812-0.133-3.478,0.24-5.04c0.398-1.668,2.832-2.229,2.4-4.32
		c3.223-2.301,7.16-4.515,11.76-3.84c2.109,0.31,3.67,2.363,5.52,2.64c2.602,0.39,5.463-1.764,6.721,0.96
		c-0.992-0.204-2.898,0.088-4.08,0.96c0.326,1.274,2.191,1.009,2.641,2.16c0.264,1.224-0.705,1.214-1.199,1.68
		c0.363,0.755,0.799,1.439,0.959,2.4c-2.586,0.891-3.99-1.003-5.76-1.68c-0.93,0.11-0.951,1.129-1.439,1.68
		c-4.295-0.134-3.824,4.495-6.24,6.24c-1.117,0.079-1.893-0.187-2.641-0.479c0.061,1.18-1.404,0.834-2.158,1.2
		c0.414,1.746,0.596,3.723,1.92,4.56c3.92-0.472,8.822-0.996,8.158-5.28c1.225-0.344,1.025,0.734,1.682,0.96
		c3.861,0.969,7.012-1.229,10.318-0.72c-0.379,2.633-3.453,1.342-5.52,2.16c-1.344,0.533-2.57,2.419-3.84,2.64
		c-2.467,0.43-5.488-1.926-6.961,0.96c1.123,2.345,3.816,0.651,6.721,0.96c0.955,2.645,4.242,2.958,5.521,5.28
		c-0.291,3.134-5.107-0.415-5.762,1.92c-0.229,1.19,1.518,0.403,1.92,0.96c0.406,1.434,1.189,2.493,1.922,3.6
		c4.473,2.345,8.193-0.82,11.52-1.44c2.703-0.504,5.408,0.652,7.68-0.96c-0.531-0.988-2.787-0.254-4.08-0.48
		c2.348-3.495,9.512-3.45,14.4-3.6c1.547-1.184,3.088-0.667,5.52-0.72c2.572-0.056,5.039-1.249,7.201-0.96
		c3.719,0.497,7.586,4.075,12.721,2.64c-1.275,2.828-7.586,2.831-11.041,1.92c-3.24,3.56-12.18,1.42-15.359,5.04
		c-5.414,0.824-10.256-3.835-12.48,1.2c0.281,1.135,1.918-0.374,2.641,0.48c-0.227,1.374-1.299,1.9-1.68,3.12
		c1.439,1.681,5.117,1.122,6.479,2.88c0,0.72,0,1.44,0,2.16c-3.916,2.229-10.811,0.488-13.92,3.84
		c-0.311,0.729-0.451,1.627-0.719,2.4c-3.076,1.728-8.986-0.199-8.881,5.04c2.635,1.778,4.326-0.748,6.48-0.96
		c6.398-0.631,7.436,4.575,10.799,6.96c1.734,1.23,4.496-0.16,6,1.92c-0.207,0.833-1.176,0.904-1.68,1.44
		c0.158,1.602,2.307,1.214,2.4,2.88c-0.832,0.369-2.189,0.212-3.361,0.24c-1.059-0.461-1.209-1.83-2.158-2.4
		c-1.096-0.136-1.496,0.425-2.641,0.24c1.375,1.185,3.58,1.54,3.84,3.84c1.814,0.904,4.76,0.681,5.76,2.399c0.641,0,1.279,0,1.92,0
		c1.25,1.551,3.295,2.307,6.24,2.16c3.738,2.182,8.529,3.311,11.76,6c2.926-0.127,4.1,1.502,6.24,2.16
		c3.062-0.693,5.938,1.127,9.359,2.398c5.066,1.885,9.939,3.283,15.119,4.801c4.029,1.182,7.951,0.936,10.08,3.359
		c-6.352,0.289-12.83-2.135-18.238-4.318c-4.967-2.008-10.154-2.266-14.881-4.561c-0.344-0.537-0.771-0.99-1.199-1.439
		c-8.535-2.426-19.143-2.779-25.92-6.961c-5.482,0.105-8.291-4.496-12.24-6.72c-0.57,0.384-5.588,2.33-5.521,3.361
		c0.104,1.545,3.766,0.695,4.08,2.639c-2.42,0.182-4.02-0.459-5.039-1.68c-0.941,2.631,4.867,2.428,5.52,5.041
		c2.572-0.555,3.75,1.707,5.281,2.398c2.586,1.17,5.559,0.135,8.398,1.68c1.025,2.977,5.371,2.631,6.721,5.281
		c1.158,0.119,2.117,0.441,3.119,0.719c1.547,1.975,0.082,4.406-1.92,4.32c-0.908-0.039-1.48-1.135-2.398-1.68
		c-0.852-0.506-2.211-0.656-3.361-1.439c-0.812-0.557-1.482-1.727-2.398-2.16c-0.795-0.377-1.812-0.174-2.641-0.48
		c-1.777-0.656-3.49-2.738-5.279-3.119c-2.471-0.525-4.875,0.689-6.721-0.721c-0.771-0.053-1.016,0.424-1.92,0.24
		c-1.791-1.088-5.127-0.633-7.92-0.721c-1.094-0.506-1.09-2.111-2.4-2.398c-0.354,0.125-0.604,0.354-0.959,0.479
		c-0.725,0.705,1.041,1.377,0.479,1.92c-1.088,0.129-1.438-0.482-2.16-0.721c-1.23,0.293-0.822,1.094-1.92,1.682
		c-2.492,1.332-10.764-0.361-11.279,2.398c-0.459,2.451,3.238,2.107,3.359,4.561c-0.168,0.951-2.055,0.188-2.16,1.199
		c0.209,1.232,0.531,2.352,1.201,3.121c-2.576-0.465-4.537-3.621-6.24-5.76c-0.721,0.238-1.201,0.719-1.439,1.439
		c1.082,1.57,5.146,3.023,2.398,5.52c-2.242,1.004-3.68-2.002-6.238-1.92c-0.486,0.016-5.611,2.23-6.24,2.641
		c-3.328,2.176,1.576,4.396,3.119,6.24c0.447,1.072,0.34,2.699,1.682,2.879c0.215,0.703,0.215,0.738,0,1.441
		c2.688,2.605,5.465,6.352,6,10.318c-4.029-1.607-4.545-6.568-7.682-9.119c-2.082-1.693-4.562-1.836-7.199-3.359
		c-0.056,1.258,0.243,4.232,0.72,5.76c1.363,0.506,3.05,2.605,1.68,4.32c-1.831,0.336-2.386-2.021-3.12-3.602
		c-0.945-2.033-2.969-4.229-1.68-6.721c0.491-0.949,0.711-2.146-1.44-2.16c-0.791,1.393,1.087,1.438,0.721,3.121
		c-3.312-2.449-4.081-7.438-7.681-9.6c-1.946,0.346-2.628-0.572-3.84-0.961c-0.773,1.791,1.243,2.717,0.96,4.801
		c-2.061-0.648-3.014-5.502-5.52-2.16c1.142,1.547,1.898,3.729,3.6,5.279c-0.057,1.002-0.892-0.271-1.2,0.479
		c0.031,1.49,1.504,1.537,3.12,1.441c-0.768,1.123,0.044,2.355-0.479,3.6c-2.097,0.162-2.996,0.482-5.28,0.721
		c0.228-2.789-1.612-3.51-3.84-3.842c-1.624,0.74-2.091,3.361-1.44,5.041c-1.28,0.996-2.864,2.309-2.88,3.84
		c-0.028,2.92,5.98,4.35,3.84,7.92c-2.865,0.209-4.4-2.945-5.04-5.76c-2.664-1.176-3.313-4.365-6.239-5.279
		c-0.73-0.949-1.552-1.811-1.92-3.119c-0.619-0.379-1.875,0.4-2.16-0.721c1.383-0.887,0.7-2.533,0.479-4.32
		c-4.609,2.27-3.562,10.197-5.76,14.881c0.3,2.855,2.417,6.332,0.96,9.359c-2.106-0.936-0.902-5.18-1.92-7.199
		c-1.951,0.459,2.062,5.432-1.92,5.52c-1.776-0.707-1.451-4.5,0.72-4.561c-0.376-2.184-0.07-5.049-1.2-6.48
		c-1.873,7.516-1.068,16.842-0.72,24.24c-2.162,0.529-1.442-1.82-1.68-2.879c-0.383-1.705-1.658-3.766-1.92-5.762
		c-0.3-2.279-0.165-3.891-1.681-5.039c1.09-1.617-0.528-4.5,0.721-6c1.031,0.408,0.899,1.979,2.159,2.16
		c-0.999,2.01,0.036,4.711,0.48,6.721c1.721-4.359-1.164-13.324,1.68-16.562c1.209-0.008,0.68,1.723,1.2,2.4
		c1.835-1.506,0.229-4.373,0.24-6.719c0.005-1.15,0.635-2.473,0.479-3.602c-0.268-1.957-2.732-3.406-1.439-5.52
		c-4.113-1.219-2.933,4.895-3.84,7.68c-2.185-0.377-1.979-3.143-2.4-5.281c-1.117-0.656-3.21,0.701-4.08,0.48
		c-2.7-0.688-2.822-6.299,0.96-6c1.831,0.145,1.429,1.502,3.601,2.16c1.289-1.867-1.759-3.074-2.16-4.801
		c1.185-2.068,0.342-4.73,1.68-6.479c-1.585-1.535-2.735-3.506-3.36-6c-2.017,0.176-2.716-0.83-3.84,0.24c0-0.881,0-1.762,0-2.643
		c0.847-0.834,2.407-0.951,3.36-1.68c-0.545-2.016-2.913-2.207-2.641-5.039c-0.101-0.54-1.272-0.006-1.439-0.48
		c-0.152-1.192,1.286-0.793,1.2-1.92c-0.204-1.636-0.99-2.69-1.681-3.84c-2.045,1.424-2.602-1.584-4.8-0.24
		c-0.475,0.12,1.04,1.774-0.479,1.68c-0.931,0.038-0.854-1.44-0.24-1.68c-2.568-1.439-4.435-7.312-0.48-8.64
		c-1.287-2.006-4.702-3.118-6.96-3.36c-0.033,1.394,1.403,1.317,1.921,2.16c0.159,2.08-1.322,2.518-1.921,3.84
		c0.641,1.078,0.665,1.495,0.48,3.12c1.167,0.945,1.691,1.989,1.68,3.6c1.08,1.186,2.659,0.667,3.12,2.16
		c0.554,1.792-1.582,3.187-0.96,5.042c-4.326,0.805-5.744-1.297-7.439-3.122c-1.163-0.202-0.763,1.159-2.16,0.72
		c-0.76-0.92-1.494-1.866-2.641-2.4c-0.088-1.608,0.022-3.018,0.48-4.08c1.921-0.399,3.358-1.281,4.8-2.16
		c0.021-0.981-1.189-0.731-1.44-1.44c-0.283-1.083,1.063-0.537,0.721-1.68c-2.679-5.569-6.3,2.854-10.561-0.24
		c-1.479,0.449-1.217,1.831-2.399,1.92c-1.417,0.107-1.672-2.065-3.84-1.44c-3.115-1.681-2.576-6.403,0-8.16
		c-1.184-1.944-0.404-4.445,0.72-6c1,0.04,2.003,0.083,2.399-0.48c0.055-1.174-0.731-1.508-0.72-2.64
		c1.859-0.222,1.938-2.223,3.36-2.88c1.566,0.624,3.049,0.356,3.84-0.96c-0.25-2.107-3.161-0.306-4.8-1.2
		c-0.46-0.82-1.12-1.44-1.2-2.64c-4.763-2.746-2.955-11.854,2.4-12.96c3.722-0.769,8.096,1.954,12.479,0.72
		c0.976,0.096,0.739-1.021,1.44-1.2c3.947,1.307,5.684-2.888,9.6-3.12c0.93-0.67,0.271-2.929,2.16-2.64
		c0.71,1.427-0.817,2.487-1.2,3.6c0.17,0.884,1.729,2.518,2.16,0.96c0.861-0.141,0.006,1.434,0.96,1.2
		c-0.197-0.753-1.404-3.125,0.24-4.08c0.638,0.002,1.371-0.091,1.68,0.24c0.623-0.203-0.462-1.053,0.24-1.44
		c1.672,1.485,4.204-0.183,5.04-1.68c-0.968-1.467-2.433-0.098-3.36,0.48c-1.967-0.913-3.438-2.321-4.08-4.56
		c0.527-0.673,1.083-1.317,1.2-2.4c2.749,0.549,5.193,1.131,6.48-1.2c-0.093-1.348-0.37-2.51-0.24-4.08
		c0.952-1.472,3.36-0.846,4.8-0.24c0.548-0.577,0.041-1.452-0.24-1.92c-3.207,1.969-5.314-2.379-3.12-4.56
		c1.951-0.05,2.829-1.171,3.36-2.64c-2.733,0.025-4.885-4.083-1.92-5.52c-0.241-1.12-1.165-1.556-1.2-2.88
		c0.714-0.013,1.218,0.706,1.68,0.24c0.714-2.409,4.218-4.309,7.2-2.88c0.438,1.956-1.087,1.953-1.68,2.88
		c0.004,3.124-0.9,5.34-2.88,6.48c-0.568,1.726,0.28,3.417-0.24,5.04c1.176,0.46,2.387-0.917,4.32-0.48
		c0.76,0.92,1.572,1.787,1.68,3.36c2.155,0.325,4.85,0.11,5.76,1.68c0.89-1.6,2.664-0.768,4.08-1.2
		c1.194-0.364,2.133-1.935,3.601-2.64c1.272-0.612,2.989-0.603,3.84-1.2c1.179-0.829,1.283-2.706,2.64-4.32
		C254.643,182.703,257.001,181.875,257.64,179.04z M229.8,196.081c0.232,2.007,0.525,3.955,1.681,5.04
		c1.785-1.095,2.736-3.023,2.64-6c-0.641-0.4-0.843-1.238-1.92-1.2C232.062,195.303,230.599,195.358,229.8,196.081z M235.8,199.681
		c0.346,0.375,0.604,0.835,1.2,0.96c0.6-1.721,1.63-3.01,2.4-4.56c-0.053-0.187-0.201-0.279-0.48-0.24
		C237.748,196.99,235.79,197.351,235.8,199.681z M215.159,213.839c0.084,0.796,0.719,1.041,1.2,1.44
		c0.946-0.53,2.96-2.158,1.68-3.36C216.946,212.427,216.828,213.909,215.159,213.839z M326.52,259.919
		c-0.836-3.057-4.295-2.081-7.199-2.88C319.547,259.771,323.451,260.352,326.52,259.919z"/>
	<path fill="#2B66AD" d="M409.32,184.319c-1.326,1.673-3.516,0.994-5.279,1.44c-1.16,0.293-2.15,1.058-3.359,1.44
		c-2.779,0.879-6.176,1.12-9.361,1.68c-3.037,0.534-5.738,1.587-8.639,2.4c-2.916,0.817-5.982,2.067-8.641,2.64
		c-2.953,0.637-5.752,0.702-8.641,1.68c-4.248,1.438-9.115,2.954-13.92,2.64c2.477-0.938,4.773-3.217,7.68-3.6
		c0.99-0.131,2.068,0.316,3.119,0.24c1.674-0.121,3.824-1.114,5.762-1.68c9.57-2.799,20.584-4.383,30-6.96
		c1.861-0.509,3.904-1.187,5.76-1.68C405.518,184.104,407.723,183.027,409.32,184.319z"/>
	<path fill="#2B66AD" d="M519,437.04c0.344,0.352,0.354,0.93-0.479,0.721c0.688,2.191,3.414,2.344,4.08,4.561
		c-2.314-1.207-5.834-1.207-6-4.561C517.635,437.263,518.445,438.019,519,437.04z"/>
</g>
</svg>
