<?xml version="1.0" encoding="utf-8"?>
<!-- Generator: Adobe Illustrator 16.0.0, SVG Export Plug-In . SVG Version: 6.00 Build 0)  -->
<!DOCTYPE svg PUBLIC "-//W3C//DTD SVG 1.1//EN" "http://www.w3.org/Graphics/SVG/1.1/DTD/svg11.dtd">
<svg version="1.1" id="Layer_1" xmlns="http://www.w3.org/2000/svg" xmlns:xlink="http://www.w3.org/1999/xlink" x="0px" y="0px"
	 width="333.52px" height="330.549px" viewBox="0 0 333.52 330.549" enable-background="new 0 0 333.52 330.549"
	 xml:space="preserve">
<g id="_x38__1_">
	<g>
		<path fill-rule="evenodd" clip-rule="evenodd" fill="#2C64AD" d="M190.501,0.25c0.853-0.852,1.587,0.722,0.86,1.002
			C190.764,1.481,190.095,0.657,190.501,0.25z"/>
		<path fill-rule="evenodd" clip-rule="evenodd" fill="#2C64AD" d="M263.926,1.108c2.369-0.499,5.276,1.39,4.151,4.437
			c-0.929,2.515-6.329,2.774-6.871-0.572C260.896,3.046,262.384,1.435,263.926,1.108z"/>
		<path fill-rule="evenodd" clip-rule="evenodd" fill="#2C64AD" d="M161.018,29.161c0.989,0.109,1.529,1.098,1.433,1.861
			c-0.355,2.773-4.584,1.115-3.15-1.146C159.601,29.403,160.208,29.071,161.018,29.161z"/>
		<path fill-rule="evenodd" clip-rule="evenodd" fill="#2C64AD" d="M330.766,55.211c0.501,0.029,1.426,0.25,1.001,1.288
			c-0.193,0.473-3.111,1.213-4.007,1.717c-1.229,0.695-2.959,0.071-3.292,0.43c-0.605,0.653-1.233,0.366-2.146,0.716
			c-0.486,0.187-0.787,0.909-1.288,1.145c-1.027,0.482-3.618,1.208-4.723,1.574c-0.759,0.252-1.523-0.003-2.29,0.144
			c-2.256,0.43-4.363,2.148-5.726,1.86c-0.8-0.168,0.092-0.381-0.716,0.144c-0.626,0.406-2.782,0.806-3.578,0.858
			c-1.148,0.077-4,1.588-4.437,0.858c-0.156-0.259,1.665-1.149,1.145-0.858c1.288-0.722,3.8-0.886,4.866-1.288
			c0.513-0.193,0.696-0.33,1.718-0.43c0.479-0.046,2.195-1.005,3.722-1.431c0.883-0.247,2.015-0.601,2.576-0.859
			c0.453-0.209,0.675-0.719,1.001-0.858c0.29-0.124,0.715,0.113,1.002,0c0.377-0.148,0.544-0.597,0.858-0.716
			c0.564-0.212,1.106,0.195,2.005,0c0.308-0.066,0.332-0.375,0.715-0.572c0.808-0.416,2.223,0.02,3.436-0.286
			c0.432-0.109,0.689-0.535,1.146-0.716c0.708-0.282,1.595-0.141,1.86-0.286c0.675-0.371,0.651-0.939,1.86-1.289
			C328.542,56.048,329.897,55.159,330.766,55.211z"/>
		<path fill-rule="evenodd" clip-rule="evenodd" fill="#2C64AD" d="M315.881,67.376C316.784,67.033,314.671,67.835,315.881,67.376
			L315.881,67.376z"/>
		<path fill-rule="evenodd" clip-rule="evenodd" fill="#2C64AD" d="M278.954,71.384c1.157-0.064-0.542,0.78-0.716,0.285
			C278.083,71.224,278.594,71.403,278.954,71.384z"/>
		<path fill-rule="evenodd" clip-rule="evenodd" fill="#2C64AD" d="M305.003,71.526C304.069,72.354,303.755,70.937,305.003,71.526
			L305.003,71.526z"/>
		<path fill-rule="evenodd" clip-rule="evenodd" fill="#2C64AD" d="M330.48,75.248c0.804-0.398,3.792,0.365,2.862,2.146
			C332.12,79.741,327.182,76.884,330.48,75.248z"/>
		<path fill-rule="evenodd" clip-rule="evenodd" fill="#2C64AD" d="M121.659,91.994c2.535-0.961,2.196,3.449-0.144,2.576
			C120.816,94.309,120.387,92.475,121.659,91.994z"/>
		<path fill-rule="evenodd" clip-rule="evenodd" fill="#2C64AD" d="M122.088,100.296c0.416-0.434,1.309-0.071,1.432,0.285
			C124.058,102.158,120.958,101.473,122.088,100.296z"/>
		<path fill-rule="evenodd" clip-rule="evenodd" fill="#2C64AD" d="M168.747,103.015c0.345-0.142,1.635-0.572,2.004,0
			C171.384,103.997,166.181,104.071,168.747,103.015z"/>
		<path fill-rule="evenodd" clip-rule="evenodd" fill="#2C64AD" d="M272.084,115.61c-0.573,0.737-1.221-0.273-1.432,0
			C270.762,114.947,271.814,115.511,272.084,115.61z"/>
		<path fill-rule="evenodd" clip-rule="evenodd" fill="#2C64AD" d="M272.8,115.753C273.907,115.333,271.836,116.118,272.8,115.753
			L272.8,115.753z"/>
		<path fill-rule="evenodd" clip-rule="evenodd" fill="#2C64AD" d="M275.662,116.182c2.212-0.348,6.183,0.334,8.302,0.573
			c-0.127-0.015,3.038,0.219,3.149,0.716c0.172,0.772-5.413,0.034-6.297-0.287C279.364,116.658,277.306,117.425,275.662,116.182z"/>
		<path fill-rule="evenodd" clip-rule="evenodd" fill="#2C64AD" d="M173.9,117.899c-0.066,0.029,0.887,0.115,0.429,0.572
			C174.13,118.67,173.126,118.237,173.9,117.899z"/>
		<path fill-rule="evenodd" clip-rule="evenodd" fill="#2C64AD" d="M271.512,125.628c0.659-0.678,1.167,0.343,0.858,0.716
			C272.255,126.484,270.971,126.185,271.512,125.628z"/>
		<path fill-rule="evenodd" clip-rule="evenodd" fill="#2C64AD" d="M28.484,126.917c0.008-0.027-0.02-0.124,0-0.144
			C29.196,126.062,28.132,127.969,28.484,126.917z"/>
		<path fill-rule="evenodd" clip-rule="evenodd" fill="#2C64AD" d="M277.093,135.934c-0.037,0.034,0.894,0.32,0.859,0.43
			C277.791,136.88,276.488,136.489,277.093,135.934z"/>
		<path fill-rule="evenodd" clip-rule="evenodd" fill="#2C64AD" d="M278.238,136.649c0.174,0.125,3.18,1.259,2.72,1.718
			C280.546,138.779,278.249,137.577,278.238,136.649z"/>
		<path fill-rule="evenodd" clip-rule="evenodd" fill="#2C64AD" d="M151.142,139.082c0.12,0.001,0.839,0.534,1.574,0.716
			c0.154,0.038,0.667-0.094,0.573-0.143c0.271,0.142,0.493,0.754,0.858,1.001c0.84,0.569,1.722,0.369,2.004,0.859
			c0.181,0.313-0.011,0.655,0.143,0.858c0.515,0.677,0.705,0.155,1.002,0.859c0.964,2.276,0.249,4.344-1.145,5.725
			c-0.438,0.435-0.187,0.915-0.572,1.288c-0.832,0.808-1.378-0.004-3.006,0.573c-0.851,0.301-1.384,1.086-2.434,1.001
			c-0.291-0.023-1.301-0.433-1.574-0.572c-0.069-0.036-0.036-0.513-0.143-0.572c-1.271-0.712-1.882-0.858-2.577-2.433
			c-0.651-1.481-0.818-4.962,0.573-6.155c0.813-0.697,0.877-1.218,1.86-1.86C148.928,139.804,149.854,139.071,151.142,139.082z"/>
		<path fill-rule="evenodd" clip-rule="evenodd" fill="#2C64AD" d="M230.578,143.663c0.399-0.416,0.293,0.491,0.144,0.571
			C230.482,144.362,230.415,143.83,230.578,143.663z"/>
		<path fill-rule="evenodd" clip-rule="evenodd" fill="#2C64AD" d="M230.864,144.234c2.001,2.911,3.789,6.471,5.152,10.735
			c0.192,0.599,2.143,3.568,2.29,4.866c0.103,0.903-0.449,0.607-0.715-0.144c-0.248-0.699-0.976-2.34-1.432-3.578
			c-0.259-0.703-0.796-1.029-1.002-1.432C233.453,151.348,232.24,147.637,230.864,144.234z"/>
		<path fill-rule="evenodd" clip-rule="evenodd" fill="#2C64AD" d="M252.333,149.817c0.181-0.256,0.887,1.6,0.43,1.717
			C252.339,151.643,251.895,150.434,252.333,149.817z"/>
		<path fill-rule="evenodd" clip-rule="evenodd" fill="#2C64AD" d="M228.861,150.246c0.825-0.144,3.109,0.708,2.29,2.577
			c-0.255,0.578-1.895,1.006-2.72,0.715C226.801,152.965,227.365,150.508,228.861,150.246z"/>
		<path fill-rule="evenodd" clip-rule="evenodd" fill="#2C64AD" d="M285.252,161.982c0.525-0.058,1.34,0.017,1.86,0.286
			c0.223,0.116,1.271,0.613,1.717,1.002c0.881,0.77,1.652,3.431,1.432,4.008c-0.22,0.573-2.861,2.505-4.294,2.29
			c-1.623-0.243-3.099-0.501-3.721-2.146c-0.206-0.545-0.754-0.278-0.859-0.573C280.508,164.377,282.958,162.23,285.252,161.982z"/>
		<path fill-rule="evenodd" clip-rule="evenodd" fill="#2C64AD" d="M262.781,162.555c1.078-0.198,1.797,1.763,2.433,2.434
			c0.138,0.144,0.454-0.013,0.573,0.144c0.165,0.215,0.196,0.92,0.716,1.574c1.282,1.621,3.028,3.294,4.866,5.582
			c1.214,1.51,2.37,3.326,3.436,4.436c0.681,0.713,3.672,2.717,3.863,3.723c-0.048-0.254-0.228,0.695-0.286,0.715
			c-0.159,0.056-1.467-1.182-1.431-1.145c-1.929-1.929-3.362-4.171-5.296-6.011c-2.934-2.796-4.753-6.276-7.156-9.447
			C264.003,163.905,263.054,163.446,262.781,162.555z"/>
		<path fill-rule="evenodd" clip-rule="evenodd" fill="#2C64AD" d="M198.232,165.562c0.836-0.206,3.904,0.048,4.293,1.431
			c0.124,0.44,0.752,0.385,0.859,0.572c0.624,1.094,0.47,3.583-0.286,4.724c-0.244,0.366-1.593,1.581-2.148,1.718
			c-1.26,0.309-3.141-0.095-4.149-0.859c-0.398-0.301-1.653-1.523-1.86-2.146c-0.327-0.979-0.159-2.605,0.285-3.292
			C195.747,166.901,197.054,165.849,198.232,165.562z"/>
		<path fill-rule="evenodd" clip-rule="evenodd" fill="#2C64AD" d="M48.95,168.996c-0.081,0.079,0.844-0.347,1.002,0.143
			C50.464,170.72,47.763,170.152,48.95,168.996z"/>
		<path fill-rule="evenodd" clip-rule="evenodd" fill="#2C64AD" d="M185.349,168.996c2.419,0.072,3.471,1.86,4.151,3.005
			c0.746,1.256,0.675,3.654-1.002,4.867c-0.765,0.553-1.001,0.583-1.86,0.858c-0.879,0.281-0.438,0.429-1.432,0.143
			c-0.756-0.217-1.684,0.188-2.434-0.143c-1.265-0.56-3.021-3.41-2.434-5.01C181.025,170.855,181.494,168.881,185.349,168.996z"/>
		<path fill-rule="evenodd" clip-rule="evenodd" fill="#2C64AD" d="M220.845,169.281c1.669-0.088,3.373,0.754,4.866,1.432
			c1.154,0.524,2.543,1.983,3.006,3.149c0.108,0.275-0.096,0.683,0,0.858c0.082,0.155,0.977,0.679,1.145,1.002
			c0.462,0.886,0.925,2.392,0.859,2.29c0.021,0.032,0.439,0.185,0.43,0.143c0.367,1.613-0.972,1.922-1.574,2.863
			c-0.142,0.219,0.247,0.585,0.142,0.858c-0.245,0.639-1.049,0.951-1.144,1.718c-0.036,0.279,0.25,0.576,0.143,0.859
			c-0.384,1.011-1.099,0.697-2.005,1.431c-0.226,0.184-0.112,0.649-0.285,0.859c-0.685,0.826-4.05,1.626-5.296,1.431
			c-0.778-0.123-1.66-0.642-2.576-0.572c-0.587,0.044-1.083,0.511-1.575,0.429c-0.853-0.142-0.963-1.07-1.717-2.003
			c-0.215-0.267-0.724-0.371-0.859-0.573c-0.253-0.379-0.022-0.897-0.285-1.145c-0.46-0.433-1.026,0.022-1.432-0.43
			c-0.262-0.291-0.015-1.427-0.43-2.29c-0.122-0.253-0.812-1.485-0.859-2.004c-0.098-1.09,0.597-2.078,0.572-2.863
			c-0.01-0.356-0.356-0.801-0.286-1.001c0.026-0.073,0.759-0.262,0.859-0.429c0.495-0.823,0.426-3.023,1.431-3.436
			c0.186-0.075,0.554,0.108,0.717,0c0.334-0.223-0.211-0.229,0.143-0.572C215.562,170.579,219.368,169.36,220.845,169.281z"/>
		<path fill-rule="evenodd" clip-rule="evenodd" fill="#2C64AD" d="M284.966,173.433
			C285.105,172.734,284.791,174.31,284.966,173.433L284.966,173.433z"/>
		<path fill-rule="evenodd" clip-rule="evenodd" fill="#2C64AD" d="M76.574,178.013c0.532-0.04,1.613,0.015,2.147,0.43
			c0.056,0.043-0.062,0.399,0,0.429c0.229,0.113,0.472-0.188,0.716,0c0.904,0.704,3.286,4.895,1.288,5.868
			c-0.801,0.391-0.187-0.38-0.716,0.573c-0.452,0.813-3.315,2.251-4.723,1.432c-0.234-0.138,0.141-0.563-0.143-0.716
			c-0.085-0.046-0.146,0.308-0.287,0.286c-0.776-0.118-1.106-1.142-1.574-1.719c-0.069-0.083-0.518,0.091-0.573,0
			C70.955,181.759,73.264,178.262,76.574,178.013z"/>
		<path fill-rule="evenodd" clip-rule="evenodd" fill="#2C64AD" d="M279.957,189.32c0.316-0.52,1.267,2.199,1.288,3.577
			c0.003,0.195-0.313,0.487-0.287,0.717c0.162,1.324,1.561,4.135,1.003,4.723c-0.574,0.605-0.918-1.568-1.003-2.29
			c-0.13-1.117-0.747-2.535-0.857-3.436C280.015,191.929,279.861,189.478,279.957,189.32z"/>
		<path fill-rule="evenodd" clip-rule="evenodd" fill="#2C64AD" d="M9.877,191.323c2.711-0.287,2.754,4.749-0.287,4.438
			c-0.126-0.013-1.514-0.429-1.717-0.716c-0.31-0.438-0.045-2.604,0.144-2.862C8.331,191.748,9.378,191.377,9.877,191.323z"/>
		<path fill-rule="evenodd" clip-rule="evenodd" fill="#2C64AD" d="M131.39,198.337c1.499-0.164,3.069,1.186,3.006,2.862
			c-0.019,0.506-0.763,1.935-1.145,2.146C129.96,205.177,127.103,198.806,131.39,198.337z"/>
		<path fill-rule="evenodd" clip-rule="evenodd" fill="#2C64AD" d="M245.176,208.642c1.517-0.541,2.377,1.693,1.288,2.29
			C245.221,211.614,243.194,209.351,245.176,208.642z"/>
		<path fill-rule="evenodd" clip-rule="evenodd" fill="#2C64AD" d="M249.899,209.931c0.188-0.466,0.65,0.368,0.288,0.429
			C250.062,210.38,249.83,210.104,249.899,209.931z"/>
		<path fill-rule="evenodd" clip-rule="evenodd" fill="#2C64AD" d="M147.708,240.416c0.035-0.04,0.411-0.286,0.572-0.144
			C149.195,241.081,146.632,241.606,147.708,240.416z"/>
		<path fill-rule="evenodd" clip-rule="evenodd" fill="#2C64AD" d="M315.881,242.706c0.585-0.421,1.651,0.264,1.287,1.001
			C316.745,244.571,314.797,243.485,315.881,242.706z"/>
		<path fill-rule="evenodd" clip-rule="evenodd" fill="#2C64AD" d="M212.115,246.57c0.121-0.066,0.884,0.062,0.572,0.572
			C212.449,247.533,211.309,247.004,212.115,246.57z"/>
		<path fill-rule="evenodd" clip-rule="evenodd" fill="#2C64AD" d="M236.875,247.286
			C236.814,246.177,237.786,247.147,236.875,247.286L236.875,247.286z"/>
		<path fill-rule="evenodd" clip-rule="evenodd" fill="#2C64AD" d="M231.867,248.573c0.283-0.313,0.78-0.072,0.857,0.145
			C233.107,249.781,231.086,249.436,231.867,248.573z"/>
		<path fill-rule="evenodd" clip-rule="evenodd" fill="#2C64AD" d="M38.932,255.301c1-0.377,2.083,0.278,2.146,1.145
			c0.206,2.804-4.577,1.249-2.862-0.857C38.207,255.599,38.844,255.334,38.932,255.301z"/>
		<path fill-rule="evenodd" clip-rule="evenodd" fill="#2C64AD" d="M133.681,260.74c5.965-0.77,7.143,7.993,2.576,10.305
			c-2.975,1.506-7.477-1.413-7.442-5.438C128.839,262.735,131.095,261.073,133.681,260.74z"/>
		<path fill-rule="evenodd" clip-rule="evenodd" fill="#2C64AD" d="M201.523,263.888c0.221-0.222,0.918-0.2,1.002-0.142
			C204.358,265.022,199.929,265.496,201.523,263.888z"/>
		<path fill-rule="evenodd" clip-rule="evenodd" fill="#2C64AD" d="M259.06,265.606c0.011-0.011-0.012-0.141,0-0.144
			C259.986,265.257,258.328,266.339,259.06,265.606z"/>
		<path fill-rule="evenodd" clip-rule="evenodd" fill="#2C64AD" d="M140.122,267.753c0.363-0.362,0.627,0.375,0.43,0.573
			C140.333,268.544,139.728,268.146,140.122,267.753z"/>
		<path fill-rule="evenodd" clip-rule="evenodd" fill="#2C64AD" d="M207.963,269.184C208.005,268.326,208.77,269.09,207.963,269.184
			L207.963,269.184z"/>
		<path fill-rule="evenodd" clip-rule="evenodd" fill="#2C64AD" d="M238.737,275.195c1.355-0.518,2.788,1.701,1.573,2.576
			C238.747,278.898,236.741,275.956,238.737,275.195z"/>
		<path fill-rule="evenodd" clip-rule="evenodd" fill="#2C64AD" d="M147.134,281.78c0.478-0.077,1.77,0.043,2.434,0.571
			c1.694,1.352,1.746,5.246-0.287,5.868c-1.04,0.319-3.308-0.532-3.721-1.146c-0.123-0.184,0.283-0.379,0-0.571
			c-0.003-0.003-0.33,0.446-0.429,0.285C143.808,284.622,145.357,282.064,147.134,281.78z"/>
		<path fill-rule="evenodd" clip-rule="evenodd" fill="#2C64AD" d="M87.881,307.828c1.764-0.596,2.056,1.818,1.001,2.29
			C87.598,310.693,86.008,308.462,87.881,307.828z"/>
		<path fill-rule="evenodd" clip-rule="evenodd" fill="#2C64AD" d="M229.291,325.719c2.258-0.756,3.961,2.332,3.004,3.865
			C230.273,332.824,225.548,326.971,229.291,325.719z"/>
		<path fill-rule="evenodd" clip-rule="evenodd" fill="#2C64AD" d="M210.54,31.737c1.132-0.267,1.787,0.421,1.86,1.861
			c0.022,0.423-0.414,0.657-0.43,1.002c-0.019,0.464,0.469,0.161,0.287,0.715c-0.127,0.384-0.722,0.658-0.859,1.288
			c-0.399,1.845-0.3,5.283,1.002,6.441c0.14,0.124,0.976,0.067,1.146,0.143c0.818,0.362,2.642,1.572,3.292,1.718
			c0.44,0.099,0.995-0.173,1.432-0.144c1.19,0.081,2.385,0.456,3.721,0.286c1.107-0.141,2.53-0.979,3.292-0.858
			c0.021,0.003,0.414,0.403,0.286,0.43c0.406-0.083,2.521-1.511,3.149-1.718c0.125-0.041,0.364,0.316,0.573,0.286
			c0.173-0.024,0.151-0.327,0.428-0.429c0.72-0.265,2.213-0.044,2.434-0.144c1.124-0.509,1.645-4.427,2.147-5.009
			c0.852-0.989,2.217-1.763,3.577-2.291c0.297-0.114,1.645-1.073,2.434-0.715c0.295,0.132,0.563,1.52,0.573,1.431
			c-0.092,0.962-1.179,1.748-1.146,2.862c0.036,1.162,0.896,2.983,1.003,3.865c0.043,0.345-0.148,1.182,0,1.431
			c0.473,0.792,1.886,0.482,2.576,1.003c1.294,0.975,1.02,3.187,1.717,4.436c0.243,0.436,0.857,0.409,1.146,0.859
			c0.595,0.929,0.124,1.421,0.717,2.004c0.534,0.526,1.211,0.811,1.717,0.858c0.611,0.059,0.755-0.44,1.431-0.572
			c0.762-0.149,1.383,0.192,2.147-0.144c1.167-0.512,2.243-1.913,3.721-2.433c0.407-0.144,0.78,0.026,1.146-0.144
			c0.33-0.153,0.761-0.742,1.145-0.858c0.5-0.152,1.186,0.15,1.717,0c1.353-0.382,2.334-1.891,3.436-2.147
			c0.537-0.124,1.175,0.252,1.717,0.144c0.524-0.104,1.025-0.788,1.575-0.858c0.406-0.053,1.019,0.448,1.574,0.429
			c1.149-0.038,2.486-0.904,3.865-0.858c0.941,0.031,1.384-0.121,2.003-0.143c0.657-0.024,2.039,0.704,3.006,0.572
			c0.968-0.132,2.972-1.599,4.008-2.147c1.884-0.997,3.785-2.474,5.868-3.149c0.165-0.053,0.654,0.102,0.573,0.145
			c0.878-0.452,1.286-1.645,2.289-1.432c-0.121-0.026,2.306,1.954,2.434,2.146c0.438,0.66,0.854,2.613,0.572,3.578
			c-0.376,1.292-2.398,3.399-4.008,4.294c-0.471,0.263-1.113,0.167-1.574,0.43c-0.559,0.319-1.047,1.159-1.717,1.717
			c-0.434,0.361-1.215,0.451-1.575,0.716c-0.435,0.321-0.522,1.006-0.716,1.146c-0.449,0.324-1.028,0.108-1.431,0.286
			c-0.533,0.236-0.622,0.901-1.001,1.288c-0.288,0.292-0.572,0.02-0.716,0.286c-0.493,0.908-0.097,1.986-0.287,2.862
			c-0.011,0.052-0.55-0.053-0.572,0c-0.58,1.337,0.292,2.358,0.572,3.722c0.064,0.313-0.287,0.287-0.286,0.716
			c0.004,1.23,1.12,3.283,0.286,4.58c-0.705,1.097-2.982,0.865-4.008,0.858c-1.393-0.009-2.44,0.369-3.864,0.43
			c-1.235,0.052-2.965-0.146-3.435,0c-1.13,0.351-3.874,2.423-4.008,3.148c-0.275,1.491,0.803,2.232,2.146,2.147
			c3.234-0.204,5.753,0.35,8.302,0c0.75-0.104,1.394-0.168,2.29-0.287c0.692-0.09,1.599-0.237,2.29-0.429
			c0.496-0.138,0.832-0.71,1.289-0.859c1.015-0.33,1.138,0.066,1.574,0c-0.025,0.004,1.255-0.702,2.146-0.715
			c0.626-0.01,3.515-0.305,3.863,0.143c1.139,1.454-1.039,1.39-2.003,1.432c-0.699,0.03-1.166,0.521-1.86,0.572
			c-0.681,0.05-1.348-0.493-2.004-0.572c-2.656-0.32-6.117,2.438-7.301,4.723c-1.302,2.517,1.597,4.712,4.151,5.726
			c0.594,0.235,1.352,0.976,2.004,1.001c0.923,0.037,3.85-1.546,3.292,0.716c0.029-0.118-0.821,0.726-1.289,0.859
			c-1.235,0.353-2.03-0.335-3.004,0c-0.829,0.284-0.829,0.923-1.146,1.146c-0.283,0.199-0.415-0.49-0.573,0
			c-0.145,0.452,0.615,1.737,0.573,2.432c-0.068,1.153-0.592,1.332-1.574,2.147c-0.093,0.077-0.266,0.56-0.286,0.572
			c-0.321,0.202-0.86-0.003-1.146,0.287c-0.128,0.13,0.237,0.386,0.143,0.572c-0.398,0.798-2.019,1.239-1.573,2.576
			c0.398,1.198,3.078,0.006,4.293,0.716c0.234,0.137-0.002,0.528,0.286,0.859c0.302,0.344,0.925,0.2,1.003,0.285
			c0.311,0.346-0.115,1.124,1.001,1.288c0.516,0.076,1.194-0.391,1.719-0.286c0.531,0.107,3.189,1.811,3.434,1.861
			c0.134,0.026,0.125-0.355,0.286-0.287c1.031,0.439,1.696,1.492,3.293,1.575c0.637,0.032,1.243,0.608,1.86,0.716
			c0.55,0.095,1.192-0.236,1.717-0.145c1.258,0.225,4.074,1.307,5.296,1.432c0.933,0.096,3.468-0.464,4.151,0.43
			c0.479,0.625-0.36,2.417-0.716,2.576c0.094-0.042-2.025-0.225-2.72-0.43c-1.111-0.327-1.558-0.88-2.719-1.002
			c-0.726-0.075-1.858-0.545-2.72-0.715c-0.812-0.161-1.218,0.043-2.004,0c-1.062-0.058-2.489-1.033-4.007-1.146
			c-1.609-0.118-2.379-0.211-3.865-0.286c-1.137-0.057-1.18-1.154-2.003-1.288c-0.899-0.146-2.278,1.147-2.863,1.432
			c-0.222,0.108-0.336-0.264-0.286-0.286c-0.23,0.105,0.02,0.389-0.287,0.572c-0.662,0.396-2.371,0.026-3.434,0
			c-0.896-0.022-3.34-1.787-3.722-0.286c-0.278,1.094,1.132,0.69,1.431,1.002c0.227,0.235-0.151,0.476,0,0.858
			c0.198,0.499,1.794,1.748,2.719,2.004c0.771,0.212,1.736-0.17,2.434-0.143c0.741,0.028,1.667,0.504,2.576,0.571
			c0.754,0.057,1.434-0.299,2.005-0.286c0.513,0.013,0.146,0.363,0.428,0.43c0.711,0.167,2.123-0.283,3.149-0.286
			c1.01-0.003,2.11,0.384,3.149,0.43c0.547,0.023,5.939-0.166,3.436,1.145c-0.764,0.398-0.476,0.119-0.859,0.144
			c-1.232,0.076-3.825-0.493-5.868-0.43c-1.835,0.058-4.354-0.586-6.584-0.572c-0.89,0.005-1.48,0.488-2.576,0.286
			c-1.613-0.297-3.056,0.101-4.866-0.143c-0.365-0.05-1.617-0.577-2.003-0.43c-0.764,0.289-0.785,1.964-1.289,2.433
			c-0.131,0.121-0.367-0.229-0.43-0.144c-0.075,0.104,0.094,0.525,0,0.716c-0.063,0.132-0.569,0.179-0.716,0.43
			c-0.331,0.574-0.586,3.039-0.429,3.436c0.288,0.728,2.991,1.389,3.721,1.431c1.647,0.097,3.584,0.897,5.726,1.288
			c1.385,0.253,2.684-0.349,4.007-0.143c0.805,0.125,2.244,0.941,2.29,1.288c0.198,1.472-1.606,0.869-1.86,0.858
			c-1.497-0.064-3.396-0.144-4.437-0.716c-0.664-0.364-1.733-0.401-2.72-0.143c-1.147,0.301-4.312,0.342-4.007,1.288
			c0.12,0.375,3.027,0.752,3.435,0.858c1.984,0.52,4.034,1.969,6.298,2.862c0.597,0.236,1.543,0.162,2.004,0.43
			c0.442,0.259,0.142,0.17,0.859,0.286c0.647,0.105,1.009,0.707,1.573,0.858c0.473,0.128,1.048,0.145,1.574,0.43
			c0.671,0.363,3.929,0.714,3.436,1.861c0.053-0.123-0.087,0.277-1.003,0.144c-2.089-0.311-5.967-2.931-8.443-3.722
			c-1.45-0.464-3.723-0.647-4.58-1.146c-0.645-0.373-0.01-0.312-0.716-0.286c-1.179,0.041-2.824-1.402-4.151-2.004
			c-0.819-0.371-1.52-0.283-3.005-0.715c-1.205-0.351-2.894-1.438-3.578-1.289c-1.38,0.302-1.701,1.01-3.148,1.717
			c-1.333,0.652-2.749,0.623-3.148,1.575c-0.159,0.38,0.033,1.936,0.285,2.433c0.405,0.798,0.93,0.383,1.575,0.717
			c0.432,0.223,0.771,1.057,1.431,1.288c1.534,0.537,3.155-0.071,3.722,0.858c0.143,0.233,0.178,1.236-0.287,1.431
			c-0.57,0.241-1.593-0.857-1.861-1.001c-1.263-0.68-3.215-1.898-2.432,0.572c0.178,0.561-0.14,0.607,0.285,1.002
			c0.608,0.562,2.952-0.084,2.291,2.003c0.117-0.368-0.972,0.854-0.716,0.716c-0.907,0.485-2.949-1.105-3.436-1.146
			c-0.321-0.024-0.24,0.337-0.716,0.43c-0.749,0.147-2.454-0.385-3.147,0c-0.385,0.214,0.15,0.42,0,0.716
			c-0.1,0.194-1.19,0.674-1.719,1.432c-0.435,0.625-0.378,1.431-0.571,1.718c-0.024,0.034-0.579,0.176-0.573,0.144
			c-0.285,1.383,1.542,2.974,0.144,3.577c-0.091,0.039-0.535-0.234-0.573-0.143c0.008-0.019,0.638,3.824-0.286,3.435
			c0.062,0.026-0.718-1.735-0.716-2.29c0.005-0.81,0.179-1.245-1.001-1.574c-0.734-0.204-2.999-0.104-3.436,0.43
			c-0.663,0.811-0.524,3.235,0.286,3.721c0.313,0.188,0.743-0.157,0.859-0.143c0.964,0.122,4.173,1.124,2.29,2.72
			c-0.447,0.378-3.604,0.317-4.295-0.287c-0.477-0.419,0-0.232-0.858-0.143c-0.827,0.085-1.124-0.473-2.003-0.716
			c-0.447-0.123-0.73,0.204-1.002,0.143c-0.385-0.087-0.098-0.48-0.573-0.716c-0.161-0.079-0.346,0.45-0.572,0.286
			c-0.428-0.309-0.686-1.2-1.287-1.573c-1.609-0.996-2.452-2.263-4.58-2.147c-1.02,0.056-2.718-0.585-3.722-0.143
			c-0.738,0.324-2.125,1.807-2.29,2.719c-0.004,0.019,0.165,1.668,0.143,1.574c0.073,0.297,0.546,1.432,1.003,2.147
			c0.383,0.604,2.025,2.143,0.571,3.006c-0.114,0.068-2.114,0.047-2.576-0.287c-0.449-0.322-0.395-1.441-0.715-2.146
			c-1.182-2.587-4.567-3.256-6.728-4.723c-0.159-0.108-0.564,0.117-0.715,0c-0.19-0.148-0.179-0.737-0.43-1.002
			c-0.056-0.059-0.652-0.103-0.716-0.143c-1.18-0.756-2.088-3.069-3.722-3.293c-2.823-0.385-1.865,2.918-2.004,4.58
			c-0.044,0.538-0.219,1.102-0.287,1.145c-1.869,1.223-2.926-3.895-4.149-4.149c-0.681-0.143-1.411,0.934-2.146,0.858
			c-0.501-0.052-0.874-0.882-1.289-1.288c-0.767-0.75-3.385-4.399-4.294-4.724c-1.962-0.698-3.978,1.07-5.438,1.289
			c-0.993,0.146-2.886-0.032-4.151-0.573c-0.734-0.313-0.71-0.516-1.717-0.716c-1.98-0.395-4.216-2.486-4.58-4.723
			c-0.087-0.536-0.262-1.729,0.144-2.147c0.047-0.048,0.402,0.058,0.429,0c0.226-0.486,0.506-1.776,0.859-2.29
			c0.309-0.449,1.326-1.179,0-1.718c-0.688-0.278-1.525,0.151-2.147,0c-1.915-0.464-3.288-2.828-2.719-4.723
			c0.061-0.201,0.624-1.493,0.858-1.86c0.229-0.358,0.642-0.119,0.716-0.573c0.243-1.493-1.225-3.185-2.147-3.292
			c-1.478-0.17-3.272,2.916-3.721,0.573c-0.234-1.224,1.418-2.36,1.86-2.576c2.704-1.322,1.603-3.761-0.716-5.296
			c-0.664-0.44-0.912-1.301-1.287-1.432c-0.632-0.219-1.437,0.435-2.005,0c-0.463-0.354-0.021-1.169-0.858-1.432
			c0.041,0.014-3.688,0.854-2.433-0.285c0.534-0.485,2.105-0.39,2.719-0.572c0.737-0.221,1.414-0.734,1.86-0.859
			c0.66-0.184,1.411,0.286,1.718-0.286c0.181-0.333-0.313-1.872-0.716-2.29c-1.281-1.333,0.622-3.133-0.716-4.866
			c-0.322-0.418-1.651-0.971-2.289-1.002c-0.977-0.048-2.007-0.363-1.719-2.004c0.073-0.414,0.973-1.013,1.146-1.718
			c0.122-0.492-0.126-0.866,0-1.145c0.133-0.293,0.682-0.486,0.716-0.716c0.073-0.49-0.521-1.435-0.572-1.861
			c-0.108-0.877,0.249-1.679-0.286-2.433c-0.793-1.116-2.24-1.473-2.147-2.72c0.051-0.663,1.246-1.718,2.004-1.718
			c0.695,0.001,0.826,0.812,1.289,0.859c0.284,0.03,0.158-0.515,0.285-0.572c0.341-0.154,0.926,0.14,1.288,0
			c0.413-0.159,1.055-1.795,0.573-2.719c-0.233-0.448-0.863-0.207-1.433-0.717c-0.606-0.543-1.987-2.61-1.287-4.007
			c0.209-0.417,1.23-0.742,1.86-0.859c0.399-0.073,2.318,0.514,3.006,0.144c0.485-0.262,0.021-1.275,0.572-2.146
			c0.246-0.388,0.873-0.291,0.859-0.859c-0.016-0.609-2.778-3.039-3.292-4.15c-0.224-0.483-2.434-2.13-3.006-3.436
			c-1.069-2.44,0.781-1.646,1.287-0.858c0.097,0.149,0.127,1.063,0.717,1.288c1.004,0.384,2.737,0.451,3.578,0.858
			c0.253,0.123,0.4,0.566,0.43,0.573c1.27,0.27,3.246-0.533,3.435-2.147c0.103-0.879-0.604-2.014,0.286-2.862
			c1.114-1.06,2.908,0.153,3.578,0c0.979-0.225,0.935-1.314,1.431-2.434c0.444-0.995,1.585-1.738,1.719-2.576
			c0.151-0.954-0.888-2.006-0.573-2.576c0.139-0.25,0.903-0.254,1.002-0.429c0.198-0.352-0.283-1.206,0.286-1.575
			c0.453-0.292,1.984,0.142,2.434,0.573c0.113,0.108-0.207,0.398-0.143,0.572c0.083,0.228,2.077,2.258,1.573,2.004
			c0.939,0.475,4.159-0.74,4.151-0.716c0.05-0.148-1.569-1.137,0-1.718c0.608-0.226,0.235,0.554,0.286,0.572
			c0.86,0.337,3.373-3.607,3.578-4.579c0.257-1.219-1.373-4.812,0-5.011c0.338-0.048,0.876,0.591,1.002,0.573
			c0.195-0.027,0.012-0.487,0.144-0.573c1.584-1.015,1.24,1.19,1.86,2.72c0.261,0.646,1.152,1.858,1.287,2.004
			c0.224,0.239,1.315,0.922,1.575,0.858c0.473-0.112,0.862-3.197,1.001-4.293c0.094-0.729,0.236-2.097,0.287-3.436
			C209.755,34.7,208.572,32.202,210.54,31.737z M239.737,35.889c0.562-0.146-0.204-0.978-0.429-0.43
			C239.425,35.173,239.442,35.965,239.737,35.889z M275.662,108.023C275.488,108.901,275.802,107.325,275.662,108.023
			L275.662,108.023z"/>
		<path fill-rule="evenodd" clip-rule="evenodd" fill="#2C64AD" d="M76.288,169.281c-0.693,1.208-1.835-0.374-2.577-0.285
			c-0.175,0.021-0.624,0.712-1.001,0.858c-0.997,0.386-2.375,0.247-3.006,0.716c-0.435,0.323-0.535,0.745-1.002,1.146
			c-0.861,0.736-1.833,2.574-2.862,2.719c-0.545,0.076-2.362-0.806-2.862-1.432c-0.32-0.399-0.464-1.963-1.575-2.719
			c-0.234-0.16-0.739-0.083-1.002-0.286c-1.093-0.846-1.128-2.372-2.719-2.147c-2.187,0.31-1.068,4.53-2.862,5.296
			c-0.697,0.298-0.455-0.146-0.572,0.43c-0.117,0.566-0.839,1.586-0.859,1.86c-0.059,0.79,0.239,1.7-0.572,2.433
			c-0.136,0.123-0.556,0.055-0.716,0.286c-0.308,0.446-0.054,1.463-1.288,1.432c-2.664-0.066-0.742-5.283-0.143-6.584
			c0.372-0.807,1.467-4.538,0.715-6.297c-0.191-0.447-0.806-0.257-1.145-0.572c-0.568-0.529-0.943-2.285-1.146-3.293
			c-0.443-2.215,0.066-4.879-0.143-7.442c-0.12-1.467-1.486-2.747-2.29-3.291c-0.206-0.14-0.237,0.147-0.572,0
			c-0.271-0.12-2.58-2.877-3.292-2.147c-0.387,0.396-0.543-0.525-1.574-0.716c-0.493-0.091-1.419-0.513-2.29-0.858
			c-0.979-0.389-2.5-1.323-3.149-1.861c-0.552-0.456-0.427-0.994-0.859-1.145c-0.415-0.145-1.093,0.358-2.146,0.144
			c-1.405-0.288-2.705-1.687-3.292-1.575c-1.279,0.244-1.561,4.812-1.432,6.441c0.042,0.523,0.377,1.005,0.43,1.574
			c0.099,1.076-0.463,2.396-0.287,3.148c0.271,1.156,2.089,1.886,2.433,3.006c0.524,1.709-1.217,2.689-2.862,1.718
			c-0.354-0.209-0.5-0.969-0.716-1.146c-0.325-0.265-1.434-0.932-1.718-1.002c-1.096-0.27-2.615,0.738-4.151,0.286
			c-0.081-0.022-0.07-0.523-0.143-0.572c-0.243-0.163-0.764,0.062-0.858,0c-0.564-0.374-1.112-1.356-1.718-1.574
			c-2.481-0.892-4.206,2.907-6.87,1.432c-0.417-0.23-0.636-1.013-1.146-1.289c-0.479-0.259-1.308-0.186-1.86-0.429
			c-0.848-0.373-1.133-1.104-2.29-1.146c-0.646-0.022-2.064,0.339-2.29-0.715c-0.084-0.39,0.682-0.857,0.716-1.146
			c0.091-0.784-1.151-2.31-1.718-2.576c-0.66-0.311-1.981,0.004-2.577-0.572c0.002,0.002-0.427-1.103-0.429-1.145
			c-0.047-1.011,1.176-2.4,1.001-3.293c-0.058-0.294-0.562-0.528-0.573-0.716c-0.058-1.12,0.789-3.359,1.146-4.293
			c1.049-2.741,2.967-5.302,6.012-6.44c0.953-0.357,2.09-1.504,3.005-1.718c1.22-0.286,2.868,0.102,4.007,0
			c0.365-0.032,0.67-0.434,1.002-0.43c-0.066-0.001,0.108,0.567,0.144,0.573c0.238,0.035,0.712-0.557,1.288-0.573
			c1.12-0.033,6.501,3.044,6.87,3.006c0.636-0.066,0.306-0.597,1.002-1.288c1.062-1.057,3.679-0.868,3.435-3.006
			c-0.06-0.524-1.545-1.124-0.572-2.146c0.673-0.709,2.258-0.128,3.435-0.573c1.895-0.716,2.656-4.404,1.575-6.44
			c-0.34-0.64-3.205-3.36-2.863-4.58c0.29-1.032,1.025-0.706,2.147-1.002c0.203-0.053,0.628-0.514,1.001-0.572
			c0.146-0.023,0.671,0.161,0.715,0.143c1.557-0.626,2.204-2.392,1.288-3.863c-0.639-1.028-2.635-1.042-3.005-2.434
			c-0.229-0.858,0.287-3.127,1.288-3.291c0.229-0.039,1.219,0.27,1.574,0.428c1.938,0.864,2.458,1.732,4.438,0.859
			c0.757-0.334,2.043-0.555,2.576-1.146c0.619-0.684,0.671-1.967,1.288-2.72c1.025-1.249,3.562-1.845,2.003-4.149
			c-0.328-0.487-1.441-1.288-2.576-1.146c-0.513,0.064-1.1,0.718-2.004,0.716c-0.233-0.001-1.57-0.566-1.574-0.573
			c-1.408-1.95,1.632-3.425,2.147-4.579c0.527-1.181-0.238-3.431,0.143-4.58c0.091-0.275,0.425-0.178,0.43-0.43
			c0.042-2.215-1.742-2.481-3.435-4.008c-0.284-0.256-0.65-1.253-1.145-1.573c-1.396-0.907-3.329-1.635-2.147-3.723
			c1.029-1.814,4.145-0.406,5.725-1.288c0.531-0.295,1.698-2.045,1.861-2.29c0.153-0.229,0.694-1.304,0.715-1.431
			c0.223-1.36-1.777-4.039-0.572-5.01c0.542-0.436,1.57-0.195,2.433-0.572c0.814-0.355,2.281-1.304,2.72-2.147
			c0.809-1.552-0.531-6.128,1.575-6.297c0.098-0.008,0.733,0.335,0.859,0.286c0.483-0.188-0.095-0.539,0.143-0.572
			c0.979-0.141,2.19,0.663,3.148,0.143c0.438-0.237,0.752-1.818,2.004-2.003c1.133-0.168,3.324,0.914,4.58,0.143
			c1.313-0.807,0.532-3.066,2.147-3.149c1.485-0.075,2.025,1.949,3.435,2.29c0.724,0.176,1.928-0.018,2.719-0.571
			c0.8-0.561,0.61-1.528,1.289-2.147c1.164-1.062,1.823,0.105,2.003,0.287c0.407,0.405,0.291,0.943,0.574,1.86
			c0.27,0.878,1.066,2.241,1.86,2.433c2.123,0.51,3.805-3.226,5.725-1.432c0.422,0.394,0.008,0.822,0.287,1.288
			c1.227,2.05,3.152,2.109,5.153,2.576c2.212,0.518,0.415,3.919,1.431,5.296c0.237,0.32,1.351,1.158,1.861,1.288
			c0.922,0.235,3.42-0.584,4.007,0.144c0.736,0.911-1.001,2.441-1.145,3.148c-0.282,1.391,0.467,1.88,0.716,2.862
			c0.043,0.17-0.193,0.909-0.143,1.002c0.483,0.892,5.36,2.366,4.437,4.294c-0.239,0.5-1.586,0.416-1.432,1.574
			c0.093,0.693,0.583,0.893,1.432,1.289c0.953,0.443,1.271,1.242,1.575,1.288c0.398,0.06-0.239-0.409,0-0.573
			c1.368-0.938,3.84,3.199,1.145,4.151c-0.307,0.107-0.615-0.089-1.002,0c-1.251,0.286-2.662,1.439-3.149,1.574
			c-0.85,0.233-1.592-0.15-2.003,0.429c-0.102,0.144-0.101,0.816-0.144,0.859c-0.345,0.346-1.576,1.17-2.146,1.431
			c-0.175,0.08-0.566-0.113-0.715,0c-1.209,0.909-2.493,3.5-1.289,5.153c0.73,1.002,2.228,1.646,3.149,2.719
			c0.832,0.969,1.426,2.539,2.29,3.579c1.514,1.821,2.316,1.606,4.58,1.717c1.162,0.057,2.338,1.04,2.433,2.862
			c0.016,0.307-0.36,0.256-0.43,0.572c-0.098,0.442,0.487,1.077,0.573,1.718c0.275,2.067-0.613,2.921,0.286,4.58
			c0.3,0.554,1.223,1.018,1.574,1.575c0.083,0.132-0.093,0.447,0,0.571c0.744,0.998,2.385,1.6,2.433,3.436
			c0.001,0.047-0.335,0.595-0.286,0.716c0.058,0.146,0.979,1.405,1.287,1.86c1.105,1.628,3.048,3.378,1.718,6.011
			c-0.574,1.136-1.777,1.351-2.29,2.147c-0.829,1.288-1.329,4.215-0.715,6.012c0.455,1.333,2.737,2.402,3.577,3.864
			c0.963,1.676-1.756,4.005-3.005,4.866c-0.381,0.262-0.767,0.111-1.002,0.43c-0.167,0.224,0.109,0.808-0.143,1.288
			c-0.283,0.536-1.145,0.632-1.289,1.002c-0.139,0.353,0.311,0.606,0.286,1.002c-0.044,0.711-0.905,1.226-1.288,1.86
			c-0.198,0.326-0.061,0.809-0.287,1.145c-0.742,1.103-1.906,1.559-2.146,3.435c-0.127,0.99,0.679,1.699-0.143,2.863
			c-0.864,1.222-2.868,2.164-3.436,3.721c-0.118,0.322,0.06,0.887-0.143,1.146c-0.896,1.142-2.265-0.088-3.865,0
			c-0.763,0.042-2.542,0.711-2.862,1.001c-0.2,0.183-0.413,1.508-0.573,1.719c-0.577,0.757-0.216-0.11-0.143,0.859
			c0.031,0.414-0.431,2.218-1.002,2.433c-0.293,0.109-0.821-0.15-1.145,0c-0.552,0.256-1.45,0.943-2.003,1.288
			c-0.171,0.106-0.181,0.526-0.287,0.572c-0.151,0.064-0.688-0.254-0.859-0.144c-0.272,0.177,0.126,0.445-0.144,0.716
			c-0.333,0.336-2.713,1.118-3.148,1.002c-0.551-0.147-0.986-1.736-2.004-2.004c-0.825-0.217-1.565-0.674-1.717-0.716
			C76.62,169.685,76.102,170.374,76.288,169.281z M102.766,147.67c0.712-0.05-0.012-1.295-0.43-0.572
			C102.516,146.787,102.391,147.696,102.766,147.67z"/>
		<path fill-rule="evenodd" clip-rule="evenodd" fill="#2C64AD" d="M281.245,138.367c0.438-0.438,3.299,0.885,3.722,1.145
			c0.755,0.466,1.219,0.841,2.146,1.289c1.413,0.681,2.79,1.365,4.007,2.433c0.212,0.187,0.528,0.026,1.002,0.143
			c0.589,0.145,0.655,0.711,1.146,1.002c0.017,0.01,0.855,0.059,0.716,0c0.385,0.162,0.929,0.842,1.575,1.146
			c0.953,0.449,3.31,1.333,4.723,2.004c1.02,0.483,3.718,2.317,1.573,2.29c-1.341-0.018-0.192-0.312-0.572-0.573
			c-0.574-0.394-1.82-1.19-2.575-1.574c-0.183-0.093-0.546,0.11-0.716,0c-0.571-0.368-0.883-1.259-1.575-1.431
			c-0.986-0.246-1.854-0.902-3.006-1.432c-1.187-0.546-2.477-0.742-3.721-1.289c-0.429-0.188-4.035-2.164-4.294-2.432
			c-0.285-0.296,0-0.709-0.286-0.859c-0.188-0.1-0.328,0.304-0.572,0.286C284.606,140.519,281.041,138.572,281.245,138.367z"/>
	</g>
</g>
</svg>
