<?xml version="1.0" encoding="utf-8"?>
<!-- Generator: Adobe Illustrator 16.0.0, SVG Export Plug-In . SVG Version: 6.00 Build 0)  -->
<!DOCTYPE svg PUBLIC "-//W3C//DTD SVG 1.1//EN" "http://www.w3.org/Graphics/SVG/1.1/DTD/svg11.dtd">
<svg version="1.1" id="Layer_1" xmlns="http://www.w3.org/2000/svg" xmlns:xlink="http://www.w3.org/1999/xlink" x="0px" y="0px"
	 width="336.24px" height="333.36px" viewBox="252.472 129.782 336.24 333.36"
	 enable-background="new 252.472 129.782 336.24 333.36" xml:space="preserve">
<g>
	<path fill="#2B65AD" d="M444.111,131.103c0.4,0,0.801,0,1.199,0c0.277,0.284,0.271,0.848,0.24,1.44
		C444.472,132.661,443.878,132.295,444.111,131.103z"/>
	<path fill="#2B65AD" d="M517.312,132.303c3.916-1.136,6.332,2.241,4.561,5.04c-1.521,2.403-6.246,1.738-6.961-0.48
		C514.017,134.083,515.658,132.782,517.312,132.303z"/>
	<path fill="#2B65AD" d="M416.032,160.623c0.249,0.631,0.287,1.473,0.24,2.4C412.52,166.332,411.36,157.941,416.032,160.623z"/>
	<path fill="#2B65AD" d="M465.951,163.022c0.951,3.763-2.283,7.005,0,10.8c1.963,0.358,3.271,1.369,4.801,2.16
		c6.488,0.61,9.684-1.949,15.119-2.4c1.207-1.114,1.422-3.22,1.92-5.04c1.908-1.293,3.656-2.745,6.48-3.12
		c1.043,1.554,0.018,3.188-0.721,4.32c0.449,1.855,1.275,3.843,1.201,5.52c0.479,0.721,2.006,0.393,2.639,0.96
		c1.316,3.005,2.262,6.379,4.801,8.16c4.693-0.481,7.291-4.155,11.521-4.32c1.471-0.367,2.041-1.638,3.359-2.16
		c4.068,0.431,9.176-2.175,13.439-0.48c3.98-1.299,6.158-4.401,10.561-5.28c1.121-0.079,1.039-1.362,2.16-1.44
		c1.615,0.143,1.711,1.808,3.119,2.16c1.641,4.69-1.709,7.657-5.279,8.64c-2.018,2.224-4.963,3.518-7.201,5.52c0,0.72,0,1.44,0,2.16
		c0.051,0.769-1.047,0.392-0.959,1.2c0.482,2.811,1.539,5.846,0.721,8.64c-2.6,1.546-7.205,0.005-11.281,0.96
		c-1.131,0.266-4.195,2.309-3.84,3.84c0.586,2.506,12.57,1.227,14.16,0.72c0.859-0.274,1.412-0.681,1.92-1.2
		c2.576,0.393,6.752-2.289,7.92,0.48c-0.686,1.234-3.271,0.567-4.32,1.44c-3.988-1.854-9.439,1.967-9.357,5.28
		c0.092,3.808,6.107,5.416,9.84,5.04c0.348,2.903-2.326,1.556-3.84,1.92c-1.174,0.283-1.152,1.049-2.16,1.2
		c0.031,1.272,0.615,1.687,0.479,2.64c-0.217,1.524-1.594,1.578-2.641,2.64c-0.955,0.969-1.229,2.178-1.92,2.88
		c0.348,1.252,2.67,0.53,4.08,0.72c0.457,1.143,1.797,1.404,2.16,2.64c0.904,0.185,1.146-0.293,1.92-0.24
		c5.898,3.361,12.824,4.594,20.398,5.52c0.189,1.388-0.301,2.099-0.719,2.88c-6.227-1.133-11.516-3.205-18.48-3.6
		c-1.035-0.004-0.885-1.196-1.92-1.2c-1.609,0.148-2.107,1.647-3.84,1.92c-2.363,0.373-4.664-1.555-6.479-0.72
		c-0.141,0.859,0.709,0.729,1.438,0.72c0.125,2.832,2.307,2.834,4.801,2.88c1.803,0.033,3.895,0.705,6,0.72
		c3.334,0.024,6.805-0.208,9.84,0.72c-1.914,1.679-6.102,0.775-9.6,0.48c-3.953-0.334-9.766-0.035-13.92-0.72
		c-0.867,2.251-3.115,3.124-2.881,6.48c3.408,1.878,8.266,3.02,13.201,2.64c-1.152-1.009-4.229-0.092-5.281-1.2
		c3.273-0.76,9.414-0.318,11.762,1.44c-1.85,0.008-3.752,0.072-5.281-0.24c-0.469,0.721,2,0.552,1.439,2.16
		c-3.922,1.321-9.352-2.358-12.959,0.479c3.561,0.179,6.461,2.747,9.6,3.84c3.344,1.165,7.162,1.308,9.602,3.84
		c-3.125,0.945-5.809-2.137-9.121-3.36c-2.277-0.842-4.973-0.719-7.199-1.68c-0.949-0.41-1.779-1.495-2.881-1.92
		c-0.855-0.331-2.213-0.341-3.359-0.72c-1.162-0.385-2.184-1.199-2.879-1.2c-2.373-0.003-4.047,2.852-6.48,2.88
		c0.064,0.815-0.186,1.946,0.24,2.4c1.078,0.842,2.355,1.483,3.359,2.4c2.289-0.467,4.549,0.616,3.119,2.4
		c-1.781-0.218-2.27-1.729-4.08-1.92c-1.393,1.385,0.908,2.823,2.4,2.88c0.242,1.362-0.445,1.795-0.959,2.4
		c-2.785-0.888-3.545-1.151-6.961-0.96c0.057,0.906-1.113,1.458-1.92,2.16c-0.369,0.671,0.029,2.109-1.199,1.92
		c0.26,1.152,1.57,3.417-0.24,3.84c0.09,1.092,0.561,2.426-0.24,3.12c-1.15-0.449-0.75-2.449-1.199-3.6
		c-1.002-0.748-2.451-0.354-3.84-0.24c-0.789,0.849-0.855,2.527-0.24,3.6c1.24,0.168,4.113,0.287,4.08,1.92
		c-0.074,3.562-8.521-0.593-10.32-0.24c-0.959-3.882-10.617-6.185-11.52-1.44c-0.584,3.064,2.34,3.519,2.398,6.48
		c-0.627,0.826-2.588,0.441-3.6,0.24c-0.529-4.51-4.504-5.575-8.16-6.96c0.252-1.062-0.84-0.884-1.439-1.44
		c-1.422-1.314-2.051-3.37-3.84-2.88c-2.016,0.552-0.754,3.387-1.439,5.76c-3.039,0.159-2.66-3.099-4.32-4.32
		c-0.969,0.152-1.211,1.029-2.4,0.96c-2.227-1.125-3.018-5.8-6-6.24c-1.414-0.209-2.832,1.184-4.318,1.44
		c-4.693,0.81-11.834-2.373-11.041-7.92c0.91-1.012,1.352-2.489,1.92-3.84c-3.002-0.205-5.791-1.45-5.52-4.8
		c0.104-1.262,0.982-2.034,1.68-3.12c-0.203-3.937-3.264-2.504-5.52-1.44c-1.816-3.096,2.904-3.28,3.119-5.52
		c0.104-1.057-0.594-1.499-1.68-2.64c-1.189-1.25-1.664-2.549-3.84-1.92c-0.332-0.387-0.203-1.237-0.721-1.44
		c-2.242-0.319-3.463,1.654-5.52,0.72c2.322-1.677,5.92-2.079,9.119-2.88c0.127-1.646-0.754-2.286-1.199-3.36
		c1.426-3.704-1.447-4.866-4.08-5.28c-0.254-1.722,0.6-3.011,1.199-4.56c0.205-0.526,0.514-2.979,0-4.32
		c-0.646-1.688-4.441-3.304-0.959-5.04c1.711-0.062,1.713,0.645,3.359,0.24c0.547-0.494,0.828-1.251,0.721-2.4
		c-1.906-0.82-3.455-2.709-2.881-5.28c1.342-0.909,2.805-0.566,4.801-0.48c0.74-0.699,0.275-2.604,1.439-2.88
		c-1.697-3.582-5.676-4.884-6.48-9.36c1.59-0.229,1.928,0.792,2.16,1.92c1.631,0.53,3.822,0.498,4.801,1.68
		c2.463-0.403,3.123-1.93,2.641-4.8c0.727-1.18,2.857-0.586,4.32-0.48c0.979-1.58,1.641-3.479,2.879-4.8
		c0.092-1.051-0.688-1.234-0.721-2.16c0.547-0.815,1.471-1.25,1.439-2.64c1.143-0.101,1.73,0.349,2.641,0.479
		c-0.234,1.756,1.188,1.853,1.682,2.88c1.34,0.141,1.85-0.55,3.119-0.48c0.178-0.879-0.59-1.333,0-1.92
		c0.73-0.301,0.934-0.183,1.439,0.24c2.562-1.743,3.35-5.048,2.4-9.12c1.154-0.273,1.588-0.119,2.879-0.48
		c0.895,2.227,1.176,5.065,3.6,5.76c1.307-3.1,1.318-7.645,0.961-11.76C463.462,162.833,465.078,162.446,465.951,163.022z"/>
	<path fill="#2B65AD" d="M253.792,280.143c0-0.64,0-1.28,0-1.92c0.577-0.303,0.484-1.276,0.96-1.68c0.13-0.85-0.85-0.59-0.72-1.44
		c0.807-6.792,5.178-10.022,10.32-12.48c5.673-0.384,9.344-0.035,13.2,2.64c0.961-1.759,3.484-1.956,4.56-3.6
		c-0.075-0.965-1.129-0.95-0.96-2.16c-0.055-1.015,1.376-0.543,0.96-1.92c0.722-0.242,0.425,0.535,0.48,0.96
		c3.775,0.59,5.045-3.069,4.08-6c-0.741-2.25-3.887-3.534-3.12-5.52c2.255-1.26,5.879-0.849,5.52-3.84
		c-0.213-1.774-1.898-1.623-3.12-2.88c-0.668-1.459-0.012-3.481,0.96-4.08c2.979,0.973,5.659,2.483,8.64,0.48
		c0.524-3.234,6.723-6.042,1.44-8.16c-1.201,0.749-3.446,1.066-4.56,0c-0.275-2.755,1.662-3.297,2.64-4.8
		c-0.678-2.672,0.548-3.679,0.24-5.28c-0.34-1.766-2.15-1.97-3.36-3.12c-0.291-0.276-0.359-1.047-0.72-1.44
		c-1.241-1.354-2.734-1.492-2.88-2.64c-0.428-3.362,2.201-1.642,5.52-2.64c3.16-0.951,3.47-4.854,2.16-8.64
		c2.018-0.942,4.687-1.233,5.76-3.12c0.25-2.231-0.199-4.162,0.72-6c2.227-0.538,5.532,0.227,6.48-2.4
		c3.609,0.854,6.025,0.436,6.479-2.88c3.259-0.243,2.908,2.782,5.761,2.16c1.522-0.333,1.86-3.176,3.359-3.12
		c1.948,0.073,1.525,4.773,3.84,5.04c1.985,0.229,2.409-2.565,5.04-1.92c0.753,0.447,0.604,1.796,1.2,2.4
		c1.1,1.701,4.318,1.282,5.76,2.64c-1.241,5.921,2.635,5.823,6.48,6.24c0.096,1.696-1.141,2.06-1.44,3.36
		c-0.183,4.343,3.721,4.6,5.28,7.2c0.097,1.376-1.674,0.886-1.68,2.16c1.318,2.705,6.057,0.617,5.28,5.52
		c-2.27,0.771-3.937,2.146-6.721,2.4c-1.379,3.061-6.021,2.671-5.279,6.72c0.274,1.498,2.381,2.012,3.6,3.36
		c1.43,1.581,2.163,4.618,3.84,5.28c1.563,0.617,3.676-0.095,4.561,0.72c1.727,2.266,0.292,5.499,0.96,8.4
		c0.308,1.335,1.183,1.221,1.92,2.16c0.155,0.199-0.124,0.735,0,0.96c0.579,1.048,2.064,1.399,2.399,2.4
		c-0.367,4.527,3.968,4.353,3.12,9.36c-2.112,1.798-4.839,4.571-3.359,8.4c0.739,1.916,3.689,2.763,3.84,4.56
		c0.183,2.192-2.033,3.523-4.08,4.56c-0.396,0.804-0.128,2.272-1.44,2.16c0.497,3.462-3.258,4.76-3.6,7.44
		c-0.092,0.726,0.447,1.627,0.24,2.4c-0.619,2.309-4.299,3.201-4.32,6c-1.701,0.271-4.619-0.829-6.24,0.48
		c-0.75,1.41-0.95,3.37-1.439,5.04c-3.787-0.144-4.821,4.21-7.921,3.601c-0.908-0.18-1.533-1.722-2.399-2.16
		c-1.521-0.771-2.684,0.023-4.08-1.199c-1.027,0.652-2.17,1.189-3.84,1.199c-1.958,1.637-4.224,6.053-7.44,2.881
		c-0.018-1.979-1.521-2.264-2.64-3.12c-1.231-0.942-1.218-2.157-2.16-2.16c-1.927-0.006-1.549,2.382-2.4,4.319
		c-0.99,1.41-2.576,2.225-2.159,5.041c-1.096,0.504-1.346,1.854-2.4,2.398c-2.291-0.01-1.844-2.466-1.68-3.6
		c0.394-2.732,2.993-6.516,1.92-9.12c-0.349-0.611-1.275-0.644-1.68-1.2c-1.917-3.31,0.094-7.739-0.96-11.04
		c-0.852-2.668-3.399-2.625-5.04-4.56c-2.863-0.833-7.14-2.071-8.88-4.8c-2.108,0.86-3.679-0.548-5.04-1.2
		c-2.369,1.417-1.351,4.665-1.2,7.44c0.049,0.897-0.442,2.159-0.24,3.12c0.394,1.871,2.915,2.418,2.64,4.08
		c-0.527,3.191-4.526,0.247-5.76-1.2c-3.601,2.269-5.306-1.75-7.44-1.92c-2.187-0.174-2.84,2.634-6,1.92
		c-1.582-2.259-4.939-2.741-7.92-3.6C259.822,281.974,255.833,281.228,253.792,280.143z"/>
	<path fill="#2B65AD" d="M585.712,186.783c-0.717,2.369-4.426,2.875-6.721,2.88c-1.713,0.218-2.898,1.473-4.08,2.16
		c-2.148,1.25-4.344,1.099-7.199,1.68c-1.4,0.285-2.52,1.264-3.842,1.68c-3.434,1.082-7.119,1.199-10.561,2.16
		c1.072-2.062,4.117-2.218,6.48-2.88c3.027-0.848,6.533-1.548,8.4-3.36c1.186,0.225,1.627-0.292,2.158-0.72
		c0.734-0.173,0.875,0.246,1.439,0.24c0.658-0.224,1.023-0.736,1.682-0.96C578.97,190.453,581.623,185.062,585.712,186.783z"/>
	<path fill="#2B65AD" d="M587.392,207.183c0,0.48,0,0.96,0,1.44c-1.309,1.808-4.672,0.716-4.32-1.2
		C583.376,205.757,586.248,205.803,587.392,207.183z"/>
	<path fill="#2B65AD" d="M376.671,222.783c0.923,0.703,0.815,2.358,0,3.12c-0.825,0.105-1.345-0.095-1.92-0.24
		C374.073,224.146,374.688,222.379,376.671,222.783z"/>
	<path fill="#2B65AD" d="M377.392,231.422c0,0.4,0,0.8,0,1.2c-0.69-0.029-1.57,0.131-1.92-0.24c0-0.32,0-0.64,0-0.96
		C375.821,231.07,377.042,231.07,377.392,231.422z"/>
	<path fill="#2B65AD" d="M526.431,257.583c-0.592,0.032-1.154,0.037-1.439-0.24c0-0.24,0-0.479,0-0.72
		C525.664,256.021,526.666,256.545,526.431,257.583z"/>
	<path fill="#2B65AD" d="M530.511,266.942c1.59,0.651,3.381,1.099,4.32,2.4c4.531,0.588,7.215,3.024,10.32,5.04
		c1.855-0.025,2.965,1.593,4.561,2.4c2.424,1.226,5.865,1.305,6.959,4.08c-2.361,0.961-2.518-2.253-5.039-1.92
		c-3.031-3.61-9.812-3.467-12.721-7.2c-1.811-0.191-2.582-1.417-3.84-2.16C532.978,269.714,531.558,268.18,530.511,266.942z"/>
	<path fill="#2B65AD" d="M409.312,281.583c-2.547-0.58-4.136,2.463-6.721,1.2c0.017,0.007-2.562-2.119-2.88-2.64
		c-0.998-1.632-0.693-3.912-0.479-6c1.623-1.653,2.722-3.883,5.04-4.08c2.374-0.202,3.439,1.885,5.76,2.16
		c0.104,1.667,1.491,2.001,1.68,3.6C411.992,278.191,410.217,279.849,409.312,281.583z"/>
	<path fill="#2B65AD" d="M484.191,274.623c1.895,2.264,3.375,5.032,4.561,7.92c1.191,2.902,2.678,5.861,3.359,9.12
		C488.781,286.673,486.5,280.634,484.191,274.623z"/>
	<path fill="#2B65AD" d="M505.791,280.862c0.24,0,0.48,0,0.721,0c0.146,0.575,0.346,1.095,0.24,1.92
		C505.775,282.799,505.718,281.896,505.791,280.862z"/>
	<path fill="#2B65AD" d="M484.912,284.462c-2.191,0.866-3.586,0.403-3.84-0.96C480.416,279.993,486.8,280.793,484.912,284.462z"/>
	<path fill="#2B65AD" d="M538.671,293.103c5.137-0.81,7.887,6.906,1.92,7.68C535.333,301.464,532.378,294.095,538.671,293.103z"/>
	<path fill="#2B65AD" d="M516.351,293.823c0.008-0.233,0.295-0.188,0.48-0.24c4.5,3.792,7.504,9.631,11.52,13.92
		c1.441,1.537,4.299,2.162,4.08,4.8C525.724,307.49,521.707,299.988,516.351,293.823z"/>
	<path fill="#2B65AD" d="M457.552,298.862c0.631,2.988-0.529,5.517-2.641,6.479c-3.404,0.137-5.957-1.174-6.48-3.359
		C447.093,296.401,455.082,294.687,457.552,298.862z"/>
	<path fill="#2B65AD" d="M303.952,300.063c0,0.319,0,0.64,0,0.96c-0.32,0.344-1.36,0.344-1.68,0
		C302.042,299.931,303.28,299.512,303.952,300.063z"/>
	<path fill="#2B65AD" d="M440.511,300.063c2.066,1.353,4.811,3.937,2.881,7.2c-0.955,1.615-4.494,2.49-6.48,1.92
		C432.216,307.832,432.917,298.146,440.511,300.063z"/>
	<path fill="#2B65AD" d="M482.511,316.143c-2.146,1.496-5.514,4.755-9.6,2.64c-0.955-0.074-1.205,0.555-2.16,0.48
		c-1.963-0.998-2.242-3.678-4.561-4.32c0.268-2.025-0.686-2.834-1.199-4.08c-0.059-1.623,0.998-2.427,0.479-3.84
		c0.844-0.838,1.342-2.02,1.439-3.6c0.854-0.428,1.701-0.859,2.16-1.682c4.816-2.589,12.533-1.326,13.682,3.842
		c0.887,1.406,2.508,2.795,2.398,4.318c-0.072,1.04-1.062,1.049-1.68,2.16c-0.1,0.178,0.311,0.93,0.24,1.2
		C483.458,314.229,481.976,314.498,482.511,316.143z"/>
	<path fill="#2B65AD" d="M335.392,315.423c-1.784,1.078-3.326,3.281-5.76,2.88c-1.677-0.277-1.748-2.058-3.359-2.642
		C323.065,307.606,337.038,306.69,335.392,315.423z"/>
	<path fill="#2B65AD" d="M533.632,320.223c2.043,2.085,1.531,6.589,2.158,9.36c-1.428-0.156-0.934-1.983-1.199-3.121
		C534.187,324.73,533.238,323.001,533.632,320.223z"/>
	<path fill="#2B65AD" d="M264.832,322.382c1.215,0.736,1.212,3.301,0.24,4.32c-1.141,0.484-2.936,0.236-3.6-0.479
		C261.053,323.403,261.945,321.896,264.832,322.382z"/>
	<path fill="#2B65AD" d="M384.352,329.583c4.31-1.74,5.024,4.604,2.16,5.278C383.798,335.501,381.056,330.914,384.352,329.583z"/>
	<path fill="#2B65AD" d="M500.751,340.143c0.076,0.957,0.014,1.772-0.479,2.16c-1.705,0.185-2.344-0.697-2.16-2.4
		C499.185,339.48,499.939,339.384,500.751,340.143z"/>
	<path fill="#2B65AD" d="M571.072,375.183c-0.965,0.084-1.756-0.004-1.92-0.721C569.193,372.894,571.687,373.39,571.072,375.183z"/>
	<path fill="#2B65AD" d="M485.392,379.503c0.398,0,0.801,0,1.199,0c0.076,0.557-0.039,0.92-0.24,1.199
		C485.662,380.671,485.212,380.402,485.392,379.503z"/>
	<path fill="#2B65AD" d="M294.832,386.703c0.39,0.772,0.115,1.301,0,2.159C290.454,390.751,291.049,384.197,294.832,386.703z"/>
	<path fill="#2B65AD" d="M386.512,391.982c1.361-0.301,2.816-0.416,3.84,0c3.849,1.564,3.062,9.41-0.479,10.561
		C383.332,404.666,378.967,393.648,386.512,391.982z"/>
	<path fill="#2B65AD" d="M456.832,394.862c0,0.32,0,0.642,0,0.96c-0.35,0.371-1.23,0.213-1.92,0.24
		C454.583,394.591,456.164,394.656,456.832,394.862z"/>
	<path fill="#2B65AD" d="M493.791,406.142c0.477,0.646,1.059,1.184,0.961,2.4c-0.346,0.135-0.586,0.375-0.721,0.721
		C491.343,410.087,490.455,405.298,493.791,406.142z"/>
	<path fill="#2B65AD" d="M404.032,419.103c-2.306,1.104-5.36-0.328-5.76-2.16C396.801,410.22,408.356,412.642,404.032,419.103z"/>
	<path fill="#2B65AD" d="M343.071,439.023c0.466,0.586,0.294,2.07-0.24,2.398c-1.746,0.301-2.557-1.049-1.92-2.398
		C341.478,438.839,342.57,438.55,343.071,439.023z"/>
	<path fill="#2B65AD" d="M485.152,461.822c-0.4,0-0.801,0-1.201,0c-1.363-0.795-2.615-1.703-2.398-4.08
		C484.023,453.992,488.89,459.984,485.152,461.822z"/>
</g>
</svg>
